<svg xmlns="http://www.w3.org/2000/svg" xmlns:xlink="http://www.w3.org/1999/xlink" contentStyleType="text/css" data-diagram-type="ACTIVITY" height="1227.5103px" preserveAspectRatio="none" style="width:1875px;height:1227px;background:#FFFFFF;" version="1.1" viewBox="0 0 1875 1227" width="1875.0353px" zoomAndPan="magnify"><defs/><g><rect fill="none" height="37.0031" style="stroke:none;stroke-width:1.0721;" width="1840.694" x="16.0809" y="11.7927"/><ellipse cx="46.0986" cy="64.8767" fill="#222222" rx="10.7206" ry="10.7206" style="stroke:#222222;stroke-width:1.0721;"/><rect fill="#555555" height="6.4324" rx="2.6802" ry="2.6802" style="stroke:#555555;stroke-width:1.0721;" width="47.1707" x="22.5133" y="97.0385"/><line style="stroke:#000000;stroke-width:1.6081;" x1="16.0809" x2="16.0809" y1="11.7927" y2="1214.8187"/><rect fill="#F1F1F1" height="49.6837" rx="13.4008" ry="13.4008" style="stroke:#181818;stroke-width:2.1441;" width="272.6698" x="99.9931" y="124.9121"/><text fill="#000000" font-family="sans-serif" font-size="12.8647" lengthAdjust="spacing" textLength="240.508" x="116.0741" y="154.7456">Identify e-commerce websites to scrape</text><rect fill="#F1F1F1" height="49.6837" rx="13.4008" ry="13.4008" style="stroke:#181818;stroke-width:2.1441;" width="262.7639" x="104.9461" y="212.118"/><text fill="#000000" font-family="sans-serif" font-size="12.8647" lengthAdjust="spacing" textLength="230.6021" x="121.027" y="241.9514">Identify categories/products to scrape</text><rect fill="#F1F1F1" height="49.6837" rx="13.4008" ry="13.4008" style="stroke:#181818;stroke-width:2.1441;" width="117.8802" x="177.388" y="366.6696"/><text fill="#000000" font-family="sans-serif" font-size="12.8647" lengthAdjust="spacing" textLength="85.7184" x="193.4689" y="396.503">Select website</text><rect fill="#F1F1F1" height="49.6837" rx="13.4008" ry="13.4008" style="stroke:#181818;stroke-width:2.1441;" width="176.5567" x="148.0497" y="453.8755"/><text fill="#000000" font-family="sans-serif" font-size="12.8647" lengthAdjust="spacing" textLength="144.3948" x="164.1307" y="483.7089">Select category/product</text><rect fill="#F1F1F1" height="49.6837" rx="13.4008" ry="13.4008" style="stroke:#181818;stroke-width:2.1441;" width="186.4883" x="143.0839" y="541.0814"/><text fill="#000000" font-family="sans-serif" font-size="12.8647" lengthAdjust="spacing" textLength="154.3265" x="159.1648" y="570.9148">Navigate to product page</text><rect fill="#F1F1F1" height="49.6837" rx="13.4008" ry="13.4008" style="stroke:#181818;stroke-width:2.1441;" width="308.4597" x="82.0982" y="628.2872"/><text fill="#000000" font-family="sans-serif" font-size="12.8647" lengthAdjust="spacing" textLength="276.2978" x="98.1792" y="658.1207">Extract product data (name, price, availability)</text><rect fill="#F1F1F1" height="49.6837" rx="13.4008" ry="13.4008" style="stroke:#181818;stroke-width:2.1441;" width="168.053" x="152.3016" y="715.4931"/><text fill="#000000" font-family="sans-serif" font-size="12.8647" lengthAdjust="spacing" textLength="135.8912" x="168.3825" y="745.3265">Store data in database</text><polygon fill="#F1F1F1" points="236.3281,299.3239,249.1928,312.1886,236.3281,325.0534,223.4633,312.1886,236.3281,299.3239" style="stroke:#181818;stroke-width:2.1441;"/><polygon fill="#F1F1F1" points="102.9179,807.8457,369.7383,807.8457,382.603,821.2368,369.7383,834.6279,102.9179,834.6279,90.0532,821.2368,102.9179,807.8457" style="stroke:#181818;stroke-width:2.1441;"/><text fill="#000000" font-family="sans-serif" font-size="11.7927" lengthAdjust="spacing" textLength="256.0997" x="108.2782" y="825.8123">More websites/categories/products to scrape?</text><text fill="#000000" font-family="sans-serif" font-size="11.7927" lengthAdjust="spacing" textLength="18.3139" x="387.9633" y="812.4213">yes</text><line style="stroke:#000000;stroke-width:1.6081;" x1="73.9722" x2="73.9722" y1="11.7927" y2="1214.8187"/><rect fill="#F1F1F1" height="49.6837" rx="13.4008" ry="13.4008" style="stroke:#181818;stroke-width:2.1441;" width="203.9459" x="514.7867" y="181.9256"/><text fill="#000000" font-family="sans-serif" font-size="12.8647" lengthAdjust="spacing" textLength="171.7841" x="530.8676" y="211.759">Retrieve historical price data</text><rect fill="#F1F1F1" height="49.6837" rx="13.4008" ry="13.4008" style="stroke:#181818;stroke-width:2.1441;" width="285.9977" x="473.7608" y="269.1314"/><text fill="#000000" font-family="sans-serif" font-size="12.8647" lengthAdjust="spacing" textLength="253.8359" x="489.8417" y="298.9649">Calculate price trends (average, min, max)</text><rect fill="#F1F1F1" height="49.6837" rx="13.4008" ry="13.4008" style="stroke:#181818;stroke-width:2.1441;" width="179.9273" x="526.796" y="346.4946"/><text fill="#000000" font-family="sans-serif" font-size="12.8647" lengthAdjust="spacing" textLength="147.7654" x="542.8769" y="376.328">Detect price drops/deals</text><polygon fill="#F1F1F1" points="487.2174,433.7005,746.3018,433.7005,759.1666,447.0915,746.3018,460.4826,487.2174,460.4826,474.3527,447.0915,487.2174,433.7005" style="stroke:#181818;stroke-width:2.1441;"/><text fill="#000000" font-family="sans-serif" font-size="11.7927" lengthAdjust="spacing" textLength="18.3139" x="626.4082" y="478.4492">yes</text><text fill="#000000" font-family="sans-serif" font-size="11.7927" lengthAdjust="spacing" textLength="248.3638" x="492.5777" y="451.6671">Price drop below threshold or deal detected?</text><text fill="#000000" font-family="sans-serif" font-size="11.7927" lengthAdjust="spacing" textLength="14.4223" x="454.57" y="438.276">no</text><polygon fill="#F1F1F1" points="616.7596,760.675,629.6244,773.5398,616.7596,786.4045,603.8949,773.5398,616.7596,760.675" style="stroke:#181818;stroke-width:2.1441;"/><line style="stroke:#000000;stroke-width:1.6081;" x1="423.7918" x2="423.7918" y1="11.7927" y2="1214.8187"/><rect fill="#F1F1F1" height="49.6837" rx="13.4008" ry="13.4008" style="stroke:#181818;stroke-width:2.1441;" width="209.4263" x="838.8447" y="493.1708"/><text fill="#000000" font-family="sans-serif" font-size="12.8647" lengthAdjust="spacing" textLength="177.2645" x="854.9256" y="523.0042">Prepare notification message</text><rect fill="#F1F1F1" height="49.6837" rx="13.4008" ry="13.4008" style="stroke:#181818;stroke-width:2.1441;" width="303.1337" x="791.991" y="580.3766"/><text fill="#000000" font-family="sans-serif" font-size="12.8647" lengthAdjust="spacing" textLength="270.9719" x="808.0719" y="610.2101">Identify users interested in category/product</text><rect fill="#F1F1F1" height="49.6837" rx="13.4008" ry="13.4008" style="stroke:#181818;stroke-width:2.1441;" width="323.7561" x="781.6798" y="667.5825"/><text fill="#000000" font-family="sans-serif" font-size="12.8647" lengthAdjust="spacing" textLength="291.5942" x="797.7608" y="697.4159">Send notification to interested users (email, etc.)</text><line style="stroke:#000000;stroke-width:1.6081;" x1="775.2475" x2="775.2475" y1="11.7927" y2="1214.8187"/><rect fill="#F1F1F1" height="49.6837" rx="13.4008" ry="13.4008" style="stroke:#181818;stroke-width:2.1441;" width="194.3101" x="1347.1741" y="454.4018"/><text fill="#000000" font-family="sans-serif" font-size="12.8647" lengthAdjust="spacing" textLength="162.1483" x="1363.255" y="484.2352">Wait for scheduled interval</text><rect fill="#555555" height="6.4324" rx="2.6802" ry="2.6802" style="stroke:#555555;stroke-width:1.0721;" width="438.1925" x="1116.1565" y="878.8599"/><rect fill="#F1F1F1" height="49.6837" rx="13.4008" ry="13.4008" style="stroke:#181818;stroke-width:2.1441;" width="207.4322" x="1129.0213" y="906.7335"/><text fill="#000000" font-family="sans-serif" font-size="12.8647" lengthAdjust="spacing" textLength="175.2704" x="1145.1022" y="936.567">Repeat scraping and analysis</text><line style="stroke:#000000;stroke-width:1.6081;" x1="1109.7241" x2="1109.7241" y1="11.7927" y2="1214.8187"/><rect fill="#F1F1F1" height="49.6837" rx="13.4008" ry="13.4008" style="stroke:#181818;stroke-width:2.1441;" width="216.9908" x="1596.8843" y="977.8585"/><text fill="#000000" font-family="sans-serif" font-size="12.8647" lengthAdjust="spacing" textLength="184.829" x="1612.9652" y="1007.6919">Receive notifications (optional)</text><rect fill="#F1F1F1" height="49.6837" rx="13.4008" ry="13.4008" style="stroke:#181818;stroke-width:2.1441;" width="280.6203" x="1565.0696" y="1048.9835"/><text fill="#000000" font-family="sans-serif" font-size="12.8647" lengthAdjust="spacing" textLength="248.4584" x="1581.1505" y="1078.8169">Browse product catalog and price history</text><rect fill="#F1F1F1" height="49.6837" rx="13.4008" ry="13.4008" style="stroke:#181818;stroke-width:2.1441;" width="177.6759" x="1616.5418" y="1120.1084"/><text fill="#000000" font-family="sans-serif" font-size="12.8647" lengthAdjust="spacing" textLength="145.5141" x="1632.6227" y="1149.9418">Make purchase decision</text><ellipse cx="1705.3797" cy="1203.0261" fill="none" rx="11.7927" ry="11.7927" style="stroke:#222222;stroke-width:1.0721;"/><ellipse cx="1705.3797" cy="1203.0261" fill="#222222" rx="6.4324" ry="6.4324" style="stroke:#222222;stroke-width:1.0721;"/><line style="stroke:#000000;stroke-width:1.6081;" x1="1558.6372" x2="1558.6372" y1="11.7927" y2="1214.8187"/><line style="stroke:#000000;stroke-width:1.6081;" x1="1849.9781" x2="1849.9781" y1="11.7927" y2="1214.8187"/><line style="stroke:#181818;stroke-width:2.1441;" x1="46.0986" x2="46.0986" y1="75.5973" y2="97.0385"/><polygon fill="#181818" points="41.8104,86.3179,46.0986,97.0385,50.3869,86.3179,46.0986,90.6062" style="stroke:#181818;stroke-width:1.0721;"/><line style="stroke:#181818;stroke-width:2.1441;" x1="236.3281" x2="236.3281" y1="174.5959" y2="212.118"/><polygon fill="#181818" points="232.0398,201.3974,236.3281,212.118,240.6163,201.3974,236.3281,205.6857" style="stroke:#181818;stroke-width:1.0721;"/><line style="stroke:#181818;stroke-width:2.1441;" x1="236.3281" x2="236.3281" y1="416.3533" y2="453.8755"/><polygon fill="#181818" points="232.0398,443.1549,236.3281,453.8755,240.6163,443.1549,236.3281,447.4431" style="stroke:#181818;stroke-width:1.0721;"/><line style="stroke:#181818;stroke-width:2.1441;" x1="236.3281" x2="236.3281" y1="503.5592" y2="541.0814"/><polygon fill="#181818" points="232.0398,530.3608,236.3281,541.0814,240.6163,530.3608,236.3281,534.649" style="stroke:#181818;stroke-width:1.0721;"/><line style="stroke:#181818;stroke-width:2.1441;" x1="236.3281" x2="236.3281" y1="590.7651" y2="628.2872"/><polygon fill="#181818" points="232.0398,617.5666,236.3281,628.2872,240.6163,617.5666,236.3281,621.8549" style="stroke:#181818;stroke-width:1.0721;"/><line style="stroke:#181818;stroke-width:2.1441;" x1="236.3281" x2="236.3281" y1="677.971" y2="715.4931"/><polygon fill="#181818" points="232.0398,704.7725,236.3281,715.4931,240.6163,704.7725,236.3281,709.0608" style="stroke:#181818;stroke-width:1.0721;"/><line style="stroke:#181818;stroke-width:2.1441;" x1="236.3281" x2="236.3281" y1="325.0534" y2="366.6696"/><polygon fill="#181818" points="232.0398,355.949,236.3281,366.6696,240.6163,355.949,236.3281,360.2372" style="stroke:#181818;stroke-width:1.0721;"/><line style="stroke:#181818;stroke-width:2.1441;" x1="382.603" x2="403.4226" y1="821.2368" y2="821.2368"/><polygon fill="#181818" points="399.1344,576.907,403.4226,566.1864,407.7109,576.907,403.4226,572.6188" style="stroke:#181818;stroke-width:2.1441;"/><line style="stroke:#181818;stroke-width:2.1441;" x1="403.4226" x2="403.4226" y1="312.1886" y2="821.2368"/><line style="stroke:#181818;stroke-width:2.1441;" x1="403.4226" x2="249.1928" y1="312.1886" y2="312.1886"/><polygon fill="#181818" points="259.9134,307.9004,249.1928,312.1886,259.9134,316.4769,255.6252,312.1886" style="stroke:#181818;stroke-width:1.0721;"/><line style="stroke:#181818;stroke-width:2.1441;" x1="236.3281" x2="236.3281" y1="765.1769" y2="807.8457"/><polygon fill="#181818" points="232.0398,797.1251,236.3281,807.8457,240.6163,797.1251,236.3281,801.4134" style="stroke:#181818;stroke-width:1.0721;"/><line style="stroke:#181818;stroke-width:2.1441;" x1="236.3281" x2="236.3281" y1="261.8018" y2="299.3239"/><polygon fill="#181818" points="232.0398,288.6033,236.3281,299.3239,240.6163,288.6033,236.3281,292.8915" style="stroke:#181818;stroke-width:1.0721;"/><line style="stroke:#181818;stroke-width:2.1441;" x1="616.7596" x2="616.7596" y1="231.6093" y2="269.1314"/><polygon fill="#181818" points="612.4714,258.4108,616.7596,269.1314,621.0479,258.4108,616.7596,262.6991" style="stroke:#181818;stroke-width:1.0721;"/><line style="stroke:#181818;stroke-width:2.1441;" x1="616.7596" x2="616.7596" y1="318.8152" y2="346.4946"/><polygon fill="#181818" points="612.4714,335.774,616.7596,346.4946,621.0479,335.774,616.7596,340.0622" style="stroke:#181818;stroke-width:1.0721;"/><line style="stroke:#181818;stroke-width:2.1441;" x1="474.3527" x2="444.161" y1="447.0915" y2="447.0915"/><polygon fill="#181818" points="439.8727,599.595,444.161,610.3157,448.4492,599.595,444.161,603.8833" style="stroke:#181818;stroke-width:2.1441;"/><line style="stroke:#181818;stroke-width:2.1441;" x1="444.161" x2="444.161" y1="447.0915" y2="773.5398"/><line style="stroke:#181818;stroke-width:2.1441;" x1="444.161" x2="603.8949" y1="773.5398" y2="773.5398"/><polygon fill="#181818" points="593.1743,769.2515,603.8949,773.5398,593.1743,777.828,597.4625,773.5398" style="stroke:#181818;stroke-width:1.0721;"/><line style="stroke:#181818;stroke-width:2.1441;" x1="616.7596" x2="616.7596" y1="396.1783" y2="433.7005"/><polygon fill="#181818" points="612.4714,422.9799,616.7596,433.7005,621.0479,422.9799,616.7596,427.2681" style="stroke:#181818;stroke-width:1.0721;"/><line style="stroke:#181818;stroke-width:2.1441;" x1="943.5579" x2="943.5579" y1="542.8545" y2="580.3766"/><polygon fill="#181818" points="939.2696,569.656,943.5579,580.3766,947.8461,569.656,943.5579,573.9443" style="stroke:#181818;stroke-width:1.0721;"/><line style="stroke:#181818;stroke-width:2.1441;" x1="943.5579" x2="943.5579" y1="630.0604" y2="667.5825"/><polygon fill="#181818" points="939.2696,656.8619,943.5579,667.5825,947.8461,656.8619,943.5579,661.1502" style="stroke:#181818;stroke-width:1.0721;"/><line style="stroke:#181818;stroke-width:2.1441;" x1="1444.3292" x2="1444.3292" y1="504.0855" y2="878.8599"/><polygon fill="#181818" points="1440.0409,868.1393,1444.3292,878.8599,1448.6174,868.1393,1444.3292,872.4276" style="stroke:#181818;stroke-width:1.0721;"/><line style="stroke:#181818;stroke-width:2.1441;" x1="1232.7374" x2="1232.7374" y1="885.2923" y2="906.7335"/><polygon fill="#181818" points="1228.4491,896.0129,1232.7374,906.7335,1237.0256,896.0129,1232.7374,900.3012" style="stroke:#181818;stroke-width:1.0721;"/><line style="stroke:#181818;stroke-width:2.1441;" x1="1705.3797" x2="1705.3797" y1="1027.5422" y2="1048.9835"/><polygon fill="#181818" points="1701.0915,1038.2628,1705.3797,1048.9835,1709.668,1038.2628,1705.3797,1042.5511" style="stroke:#181818;stroke-width:1.0721;"/><line style="stroke:#181818;stroke-width:2.1441;" x1="1705.3797" x2="1705.3797" y1="1098.6672" y2="1120.1084"/><polygon fill="#181818" points="1701.0915,1109.3878,1705.3797,1120.1084,1709.668,1109.3878,1705.3797,1113.676" style="stroke:#181818;stroke-width:1.0721;"/><line style="stroke:#181818;stroke-width:2.1441;" x1="1705.3797" x2="1705.3797" y1="1169.7922" y2="1191.2334"/><polygon fill="#181818" points="1701.0915,1180.5128,1705.3797,1191.2334,1709.668,1180.5128,1705.3797,1184.801" style="stroke:#181818;stroke-width:1.0721;"/><line style="stroke:#181818;stroke-width:2.1441;" x1="616.7596" x2="616.7596" y1="460.4826" y2="476.8267"/><line style="stroke:#181818;stroke-width:2.1441;" x1="616.7596" x2="943.5579" y1="476.8267" y2="476.8267"/><line style="stroke:#181818;stroke-width:2.1441;" x1="943.5579" x2="943.5579" y1="476.8267" y2="493.1708"/><polygon fill="#181818" points="939.2696,482.4501,943.5579,493.1708,947.8461,482.4501,943.5579,486.7384" style="stroke:#181818;stroke-width:1.0721;"/><line style="stroke:#181818;stroke-width:2.1441;" x1="943.5579" x2="943.5579" y1="717.2663" y2="738.9706"/><line style="stroke:#181818;stroke-width:2.1441;" x1="943.5579" x2="616.7596" y1="738.9706" y2="738.9706"/><line style="stroke:#181818;stroke-width:2.1441;" x1="616.7596" x2="616.7596" y1="738.9706" y2="760.675"/><polygon fill="#181818" points="612.4714,749.9544,616.7596,760.675,621.0479,749.9544,616.7596,754.2427" style="stroke:#181818;stroke-width:1.0721;"/><line style="stroke:#181818;stroke-width:2.1441;" x1="30.0177" x2="30.0177" y1="103.4709" y2="107.7592"/><line style="stroke:#181818;stroke-width:2.1441;" x1="30.0177" x2="236.3281" y1="107.7592" y2="107.7592"/><line style="stroke:#181818;stroke-width:2.1441;" x1="236.3281" x2="236.3281" y1="107.7592" y2="124.9121"/><polygon fill="#181818" points="232.0398,114.1915,236.3281,124.9121,240.6163,114.1915,236.3281,118.4798" style="stroke:#181818;stroke-width:1.0721;"/><line style="stroke:#181818;stroke-width:2.1441;" x1="62.1796" x2="62.1796" y1="103.4709" y2="107.7592"/><line style="stroke:#181818;stroke-width:2.1441;" x1="62.1796" x2="616.7596" y1="107.7592" y2="107.7592"/><line style="stroke:#181818;stroke-width:2.1441;" x1="616.7596" x2="616.7596" y1="107.7592" y2="181.9256"/><polygon fill="#181818" points="612.4714,171.2049,616.7596,181.9256,621.0479,171.2049,616.7596,175.4932" style="stroke:#181818;stroke-width:1.0721;"/><line style="stroke:#181818;stroke-width:2.1441;" x1="62.1796" x2="62.1796" y1="103.4709" y2="107.7592"/><line style="stroke:#181818;stroke-width:2.1441;" x1="62.1796" x2="1444.3292" y1="107.7592" y2="107.7592"/><line style="stroke:#181818;stroke-width:2.1441;" x1="1444.3292" x2="1444.3292" y1="107.7592" y2="454.4018"/><polygon fill="#181818" points="1440.0409,443.6812,1444.3292,454.4018,1448.6174,443.6812,1444.3292,447.9694" style="stroke:#181818;stroke-width:1.0721;"/><line style="stroke:#181818;stroke-width:2.1441;" x1="236.3281" x2="236.3281" y1="834.6279" y2="863.8511"/><line style="stroke:#181818;stroke-width:2.1441;" x1="236.3281" x2="1123.6609" y1="863.8511" y2="863.8511"/><line style="stroke:#181818;stroke-width:2.1441;" x1="1123.6609" x2="1123.6609" y1="863.8511" y2="878.8599"/><polygon fill="#181818" points="1119.3727,868.1393,1123.6609,878.8599,1127.9492,868.1393,1123.6609,872.4276" style="stroke:#181818;stroke-width:1.0721;"/><text fill="#000000" font-family="sans-serif" font-size="11.7927" lengthAdjust="spacing" textLength="14.4223" x="245.9766" y="855.8106">no</text><line style="stroke:#181818;stroke-width:2.1441;" x1="616.7596" x2="616.7596" y1="786.4045" y2="863.8511"/><line style="stroke:#181818;stroke-width:2.1441;" x1="616.7596" x2="1296.2445" y1="863.8511" y2="863.8511"/><line style="stroke:#181818;stroke-width:2.1441;" x1="1296.2445" x2="1296.2445" y1="863.8511" y2="878.8599"/><polygon fill="#181818" points="1291.9563,868.1393,1296.2445,878.8599,1300.5327,868.1393,1296.2445,872.4276" style="stroke:#181818;stroke-width:1.0721;"/><line style="stroke:#181818;stroke-width:2.1441;" x1="1232.7374" x2="1232.7374" y1="956.4173" y2="961.7776"/><line style="stroke:#181818;stroke-width:2.1441;" x1="1232.7374" x2="1705.3797" y1="961.7776" y2="961.7776"/><line style="stroke:#181818;stroke-width:2.1441;" x1="1705.3797" x2="1705.3797" y1="961.7776" y2="977.8585"/><polygon fill="#181818" points="1701.0915,967.1379,1705.3797,977.8585,1709.668,967.1379,1705.3797,971.4261" style="stroke:#181818;stroke-width:1.0721;"/><text fill="#000000" font-family="sans-serif" font-size="19.2971" lengthAdjust="spacing" textLength="43.3217" x="23.3657" y="37.7815">Start</text><text fill="#000000" font-family="sans-serif" font-size="19.2971" lengthAdjust="spacing" textLength="117.0941" x="190.335" y="37.7815">Data Scraper</text><text fill="#000000" font-family="sans-serif" font-size="19.2971" lengthAdjust="spacing" textLength="127.611" x="535.7142" y="37.7815">Price Analyzer</text><text fill="#000000" font-family="sans-serif" font-size="19.2971" lengthAdjust="spacing" textLength="192.3523" x="846.3097" y="37.7815">Notification Manager</text><text fill="#000000" font-family="sans-serif" font-size="19.2971" lengthAdjust="spacing" textLength="90.2906" x="1289.0354" y="37.7815">Scheduler</text><text fill="#000000" font-family="sans-serif" font-size="19.2971" lengthAdjust="spacing" textLength="42.2025" x="1683.2064" y="37.7815">User</text><!--SRC=[VLF1ZXen3BtFL_W84bjGg_QmIArsktleWHKghNesYM4iCiaeCSDIyV5rCZ25bThBP6I_FDllEMd7liM83JmOuOxb-1YYfVYZPhFpb1AyhzA0MQArxBVmyIfskRSIZFBixO2PNO5io_1XfX63Zg31L_Wqcy61hTHLTIfNJrNAHxK9SLS1d9vG45OcOalnf87xRvQyyEO8T6T2qr0q10TQ9nPA805ImSvle0Q5jY4ofMaRWzqRUGEDr1AA_kYj5JaoSk6StmJFHCSBpJdxWXrlDPL9pnbeSNkv_Fmg4NFedB9vff77XYOQOwC7TiWEr-nKml6bfeH8FPXzETUOhjg5GyqgusYHOHS9fl-TzSiOEC7eI6ciD7UVVPWNfG6to3xhlSpzm8D7T_nzLlmxYT9r13KdROdLlBxjqbDH-YiwitTPWJuXaRpLGjXHL1qcqB2VPCFBRFTF95JqA2Gnj6bg2LtAITx0Q3aaO4qk743gIAaEpaA8aA7woHHaTIAfoGypwGWlGKtNBeM3XmLwRQ0CeeMNgXogMluQqkX-_pLhM9fzefXKUI6jhPMo2V_mVwNJtdAgubStUweHDMho14ZCkw83kQJs-P3xLWRUlF5YPMgoUtUsuHUoW0BKoZvi-n8TkdcL6oXFHjqgkr7ypWyGDOFPpiIgRtNwcJAVmWnnTwk4jXZQ_8DE-xj_ZE6GQDXQnQ0BFM7lNByFHuKkSAV0VJIrRgXwOpWfpLpVScZ_0000]--></g></svg>