<svg xmlns="http://www.w3.org/2000/svg" xmlns:xlink="http://www.w3.org/1999/xlink" contentStyleType="text/css" data-diagram-type="CLASS" height="1307.1468px" preserveAspectRatio="none" style="width:1875px;height:1307px;background:#FFFFFF;" version="1.1" viewBox="0 0 1875 1307" width="1875.0266px" zoomAndPan="magnify"><title>hardware price dynamics monitoring system class diagram</title><defs/><g><text fill="#000000" font-family="sans-serif" font-size="17.9061" font-weight="bold" lengthAdjust="spacing" textLength="527.1363" x="665.6183" y="31.9316">hardware price dynamics monitoring system class diagram</text><!--cluster made by--><g class="cluster" data-entity="made by" data-source-line="125" data-uid="ent0028" id="cluster_made by"><path d="M262.3758,282.4152 L340.0421,282.4152 A4.7963,4.7963 0 0 1 343.2396,285.6128 L352.1926,314.4773 L351.9064,314.4773 A3.1975,3.1975 0 0 1 355.104,317.6748 L355.104,361.0743 A3.1975,3.1975 0 0 1 351.9064,364.2718 L262.3758,364.2718 A3.1975,3.1975 0 0 1 259.1783,361.0743 L259.1783,285.6128 A3.1975,3.1975 0 0 1 262.3758,282.4152" fill="none" style="stroke:#000000;stroke-width:1.9185;"/><line style="stroke:#000000;stroke-width:1.9185;" x1="259.1783" x2="352.1926" y1="314.4773" y2="314.4773"/><text fill="#000000" font-family="sans-serif" font-size="17.9061" font-weight="bold" lengthAdjust="spacing" textLength="76.3872" x="264.2943" y="304.1148">made by</text></g><g class="entity" data-entity="N1" data-source-line="128" data-uid="ent0029" id="entity_N1"><path d="M293.072,331.0176 L293.072,343.8076 L319.9312,343.8076 L319.9312,343.8076 L307.1411,331.0176 L293.072,331.0176" fill="#FAFAFA" style="stroke:#181818;stroke-width:0.6395;"/><path d="M307.1411,331.0176 L307.1411,343.8076 L319.9312,343.8076 L307.1411,331.0176" fill="#FAFAFA" style="stroke:#181818;stroke-width:1.279;"/></g><!--class User--><g class="entity" data-entity="User" data-source-line="17" data-uid="ent0002" id="entity_User"><rect fill="#FFFFFF" height="305.2727" rx="3.1975" ry="3.1975" style="stroke:#000000;stroke-width:0.6395;" width="492.9564" x="60.0239" y="388.1381"/><ellipse cx="281.486" cy="408.6022" fill="#C2C2C2" rx="14.0691" ry="14.0691" style="stroke:#181818;stroke-width:1.279;"/><path d="M280.8066,417.4554 Q278.5683,417.4554 277.1094,416.5161 Q275.6705,415.5568 274.9511,413.8382 Q274.2516,412.0995 274.2516,409.8013 Q274.2516,407.2033 275.091,405.3447 Q275.9303,403.4862 277.5691,402.487 Q279.2078,401.4877 281.6059,401.4877 Q282.745,401.4877 283.6044,401.7276 Q284.4637,401.9474 285.343,402.387 L284.3038,404.965 Q283.5045,404.5654 282.805,404.4055 Q282.1255,404.2456 281.506,404.2456 Q280.0072,404.2456 279.1079,404.9251 Q278.2086,405.6045 277.8289,406.8236 Q277.4492,408.0427 277.4492,409.6614 Q277.4492,412.2394 278.3684,413.4784 Q279.2877,414.6975 281.3261,414.6975 Q282.0856,414.6975 282.8849,414.4977 Q283.6843,414.2978 284.7435,413.8182 L284.7435,416.656 Q283.8042,417.0557 282.785,417.2555 Q281.7858,417.4554 280.8066,417.4554 Z " fill="#000000"/><text fill="#000000" font-family="sans-serif" font-size="17.9061" lengthAdjust="spacing" textLength="39.1605" x="307.7057" y="415.5498">User</text><line style="stroke:#000000;stroke-width:0.6395;" x1="61.3029" x2="551.7013" y1="429.0664" y2="429.0664"/><rect fill="none" height="7.6741" style="stroke:#595959;stroke-width:1.279;" width="7.6741" x="70.2559" y="444.4579"/><text fill="#000000" font-family="sans-serif" font-size="17.9061" lengthAdjust="spacing" textLength="92.5385" x="85.604" y="453.324">userID : int</text><rect fill="none" height="7.6741" style="stroke:#595959;stroke-width:1.279;" width="7.6741" x="70.2559" y="468.8459"/><text fill="#000000" font-family="sans-serif" font-size="17.9061" lengthAdjust="spacing" textLength="148.3337" x="85.604" y="477.712">username : string</text><rect fill="none" height="7.6741" style="stroke:#595959;stroke-width:1.279;" width="7.6741" x="70.2559" y="493.234"/><text fill="#000000" font-family="sans-serif" font-size="17.9061" lengthAdjust="spacing" textLength="228.8394" x="85.604" y="502.1">searchHistory : List&lt;string&gt;</text><rect fill="none" height="7.6741" style="stroke:#595959;stroke-width:1.279;" width="7.6741" x="70.2559" y="517.622"/><text fill="#000000" font-family="sans-serif" font-size="17.9061" lengthAdjust="spacing" textLength="192.4542" x="85.604" y="526.488">wishlist : List&lt;Product&gt;</text><rect fill="none" height="7.6741" style="stroke:#595959;stroke-width:1.279;" width="7.6741" x="70.2559" y="542.01"/><text fill="#000000" font-family="sans-serif" font-size="17.9061" lengthAdjust="spacing" textLength="105.968" x="85.604" y="550.8761">email: String</text><line style="stroke:#000000;stroke-width:0.6395;" x1="61.3029" x2="551.7013" y1="561.2386" y2="561.2386"/><ellipse cx="74.093" cy="580.4671" fill="#A6A6A6" rx="3.837" ry="3.837" style="stroke:#545454;stroke-width:1.279;"/><text fill="#000000" font-family="sans-serif" font-size="17.9061" lengthAdjust="spacing" textLength="256.8623" x="85.604" y="585.4962">viewProduct(product: Product)</text><ellipse cx="74.093" cy="604.8552" fill="#A6A6A6" rx="3.837" ry="3.837" style="stroke:#545454;stroke-width:1.279;"/><text fill="#000000" font-family="sans-serif" font-size="17.9061" lengthAdjust="spacing" textLength="270.8291" x="85.604" y="609.8842">addToWishlist(product: Product)</text><ellipse cx="74.093" cy="629.2432" fill="#A6A6A6" rx="3.837" ry="3.837" style="stroke:#545454;stroke-width:1.279;"/><text fill="#000000" font-family="sans-serif" font-size="17.9061" lengthAdjust="spacing" textLength="360.3773" x="85.604" y="634.2722">compareProducts(products: List&lt;Product&gt;)</text><ellipse cx="74.093" cy="653.6312" fill="#A6A6A6" rx="3.837" ry="3.837" style="stroke:#545454;stroke-width:1.279;"/><text fill="#000000" font-family="sans-serif" font-size="17.9061" lengthAdjust="spacing" textLength="248.5897" x="85.604" y="658.6603">searchProducts(query: string)</text><ellipse cx="74.093" cy="678.0193" fill="#A6A6A6" rx="3.837" ry="3.837" style="stroke:#545454;stroke-width:1.279;"/><text fill="#000000" font-family="sans-serif" font-size="17.9061" lengthAdjust="spacing" textLength="459.7022" x="85.604" y="683.0483">setPriceAlert(product: Product, thresholdPrice: double)</text></g><!--class Product--><g class="entity" data-entity="Product" data-source-line="30" data-uid="ent0003" id="entity_Product"><rect fill="#FFFFFF" height="280.8847" rx="3.1975" ry="3.1975" style="stroke:#000000;stroke-width:0.6395;" width="261.1625" x="1576.4677" y="569.1562"/><ellipse cx="1668.5138" cy="589.6203" fill="#C2C2C2" rx="14.0691" ry="14.0691" style="stroke:#181818;stroke-width:1.279;"/><path d="M1667.8343,598.4735 Q1665.596,598.4735 1664.1372,597.5342 Q1662.6983,596.5749 1661.9788,594.8563 Q1661.2794,593.1176 1661.2794,590.8194 Q1661.2794,588.2214 1662.1187,586.3628 Q1662.9581,584.5043 1664.5968,583.5051 Q1666.2355,582.5058 1668.6337,582.5058 Q1669.7728,582.5058 1670.6321,582.7456 Q1671.4915,582.9655 1672.3708,583.4051 L1671.3316,585.9831 Q1670.5322,585.5834 1669.8327,585.4236 Q1669.1533,585.2637 1668.5337,585.2637 Q1667.0349,585.2637 1666.1356,585.9432 Q1665.2363,586.6226 1664.8566,587.8417 Q1664.4769,589.0607 1664.4769,590.6795 Q1664.4769,593.2575 1665.3962,594.4965 Q1666.3155,595.7156 1668.3539,595.7156 Q1669.1133,595.7156 1669.9127,595.5157 Q1670.7121,595.3159 1671.7712,594.8363 L1671.7712,597.6741 Q1670.832,598.0738 1669.8128,598.2736 Q1668.8135,598.4735 1667.8343,598.4735 Z " fill="#000000"/><text fill="#000000" font-family="sans-serif" font-size="17.9061" lengthAdjust="spacing" textLength="66.1987" x="1694.7334" y="596.5679">Product</text><line style="stroke:#000000;stroke-width:0.6395;" x1="1577.7467" x2="1836.3511" y1="610.0845" y2="610.0845"/><rect fill="none" height="7.6741" style="stroke:#595959;stroke-width:1.279;" width="7.6741" x="1586.6997" y="625.476"/><text fill="#000000" font-family="sans-serif" font-size="17.9061" lengthAdjust="spacing" textLength="121.7791" x="1602.0478" y="634.342">productID : int</text><ellipse cx="1590.5368" cy="653.701" fill="none" rx="3.837" ry="3.837" style="stroke:#545454;stroke-width:1.279;"/><text fill="#000000" font-family="sans-serif" font-size="17.9061" lengthAdjust="spacing" textLength="111.1966" x="1602.0478" y="658.7301">name : string</text><ellipse cx="1590.5368" cy="678.0891" fill="none" rx="3.837" ry="3.837" style="stroke:#545454;stroke-width:1.279;"/><text fill="#000000" font-family="sans-serif" font-size="17.9061" lengthAdjust="spacing" textLength="157.5375" x="1602.0478" y="683.1181">description : string</text><ellipse cx="1590.5368" cy="702.4771" fill="none" rx="3.837" ry="3.837" style="stroke:#545454;stroke-width:1.279;"/><text fill="#000000" font-family="sans-serif" font-size="17.9061" lengthAdjust="spacing" textLength="114.4734" x="1602.0478" y="707.5061">price : double</text><ellipse cx="1590.5368" cy="726.8651" fill="none" rx="3.837" ry="3.837" style="stroke:#545454;stroke-width:1.279;"/><text fill="#000000" font-family="sans-serif" font-size="17.9061" lengthAdjust="spacing" textLength="154.1711" x="1602.0478" y="731.8942">imagePath : string</text><ellipse cx="1590.5368" cy="751.2532" fill="none" rx="3.837" ry="3.837" style="stroke:#545454;stroke-width:1.279;"/><text fill="#000000" font-family="sans-serif" font-size="17.9061" lengthAdjust="spacing" textLength="154.7262" x="1602.0478" y="756.2822">productUrl : string</text><ellipse cx="1590.5368" cy="775.6412" fill="none" rx="3.837" ry="3.837" style="stroke:#545454;stroke-width:1.279;"/><text fill="#000000" font-family="sans-serif" font-size="17.9061" lengthAdjust="spacing" textLength="187.3331" x="1602.0478" y="780.6702">sourceWebsite : string</text><ellipse cx="1590.5368" cy="800.0292" fill="none" rx="3.837" ry="3.837" style="stroke:#545454;stroke-width:1.279;"/><text fill="#000000" font-family="sans-serif" font-size="17.9061" lengthAdjust="spacing" textLength="136.8202" x="1602.0478" y="805.0583">category : string</text><ellipse cx="1590.5368" cy="824.4173" fill="none" rx="3.837" ry="3.837" style="stroke:#545454;stroke-width:1.279;"/><text fill="#000000" font-family="sans-serif" font-size="17.9061" lengthAdjust="spacing" textLength="227.9082" x="1602.0478" y="829.4463">specifications : List&lt;String&gt;</text><line style="stroke:#000000;stroke-width:0.6395;" x1="1577.7467" x2="1836.3511" y1="839.8088" y2="839.8088"/></g><!--class SearchResult--><g class="entity" data-entity="SearchResult" data-source-line="42" data-uid="ent0004" id="entity_SearchResult"><rect fill="#FFFFFF" height="134.5565" rx="3.1975" ry="3.1975" style="stroke:#000000;stroke-width:0.6395;" width="238.0458" x="953.194" y="336.6452"/><ellipse cx="1012.284" cy="357.1093" fill="#C2C2C2" rx="14.0691" ry="14.0691" style="stroke:#181818;stroke-width:1.279;"/><path d="M1011.6045,365.9625 Q1009.3663,365.9625 1007.9074,365.0232 Q1006.4685,364.0639 1005.7491,362.3453 Q1005.0496,360.6066 1005.0496,358.3084 Q1005.0496,355.7104 1005.889,353.8519 Q1006.7283,351.9933 1008.367,350.9941 Q1010.0058,349.9948 1012.4039,349.9948 Q1013.543,349.9948 1014.4024,350.2347 Q1015.2617,350.4545 1016.141,350.8942 L1015.1018,353.4722 Q1014.3024,353.0725 1013.603,352.9126 Q1012.9235,352.7527 1012.304,352.7527 Q1010.8051,352.7527 1009.9058,353.4322 Q1009.0065,354.1117 1008.6268,355.3307 Q1008.2471,356.5498 1008.2471,358.1685 Q1008.2471,360.7465 1009.1664,361.9856 Q1010.0857,363.2046 1012.1241,363.2046 Q1012.8835,363.2046 1013.6829,363.0048 Q1014.4823,362.8049 1015.5415,362.3253 L1015.5415,365.1631 Q1014.6022,365.5628 1013.583,365.7626 Q1012.5838,365.9625 1011.6045,365.9625 Z " fill="#000000"/><text fill="#000000" font-family="sans-serif" font-size="17.9061" lengthAdjust="spacing" textLength="108.9941" x="1038.5037" y="364.0569">SearchResult</text><line style="stroke:#000000;stroke-width:0.6395;" x1="954.473" x2="1189.9607" y1="377.5735" y2="377.5735"/><ellipse cx="967.2631" cy="396.802" fill="none" rx="3.837" ry="3.837" style="stroke:#545454;stroke-width:1.279;"/><text fill="#000000" font-family="sans-serif" font-size="17.9061" lengthAdjust="spacing" textLength="111.9486" x="978.7741" y="401.8311">query : string</text><ellipse cx="967.2631" cy="421.1901" fill="none" rx="3.837" ry="3.837" style="stroke:#545454;stroke-width:1.279;"/><text fill="#000000" font-family="sans-serif" font-size="17.9061" lengthAdjust="spacing" textLength="204.7915" x="978.7741" y="426.2191">products : List&lt;Product&gt;</text><ellipse cx="967.2631" cy="445.5781" fill="none" rx="3.837" ry="3.837" style="stroke:#545454;stroke-width:1.279;"/><text fill="#000000" font-family="sans-serif" font-size="17.9061" lengthAdjust="spacing" textLength="185.9723" x="978.7741" y="450.6071">timestamp : DateTime</text><line style="stroke:#000000;stroke-width:0.6395;" x1="954.473" x2="1189.9607" y1="460.9696" y2="460.9696"/></g><!--class WebScraper--><g class="entity" data-entity="WebScraper" data-source-line="49" data-uid="ent0005" id="entity_WebScraper"><rect fill="#FFFFFF" height="232.1086" rx="3.1975" ry="3.1975" style="stroke:#000000;stroke-width:0.6395;" width="508.8569" x="817.7853" y="60.2003"/><ellipse cx="1015.7099" cy="80.6644" fill="#C2C2C2" rx="14.0691" ry="14.0691" style="stroke:#181818;stroke-width:1.279;"/><path d="M1015.0304,89.5175 Q1012.7922,89.5175 1011.3333,88.5783 Q1009.8944,87.619 1009.175,85.9004 Q1008.4755,84.1617 1008.4755,81.8635 Q1008.4755,79.2655 1009.3149,77.4069 Q1010.1542,75.5484 1011.7929,74.5491 Q1013.4317,73.5499 1015.8298,73.5499 Q1016.9689,73.5499 1017.8283,73.7897 Q1018.6876,74.0096 1019.5669,74.4492 L1018.5277,77.0272 Q1017.7283,76.6275 1017.0289,76.4677 Q1016.3494,76.3078 1015.7299,76.3078 Q1014.2311,76.3078 1013.3318,76.9873 Q1012.4325,77.6667 1012.0527,78.8858 Q1011.673,80.1048 1011.673,81.7236 Q1011.673,84.3016 1012.5923,85.5406 Q1013.5116,86.7597 1015.55,86.7597 Q1016.3094,86.7597 1017.1088,86.5598 Q1017.9082,86.36 1018.9674,85.8804 L1018.9674,88.7182 Q1018.0281,89.1179 1017.0089,89.3177 Q1016.0097,89.5175 1015.0304,89.5175 Z " fill="#000000"/><text fill="#000000" font-family="sans-serif" font-size="17.9061" lengthAdjust="spacing" textLength="102.1361" x="1041.9296" y="87.612">WebScraper</text><line style="stroke:#000000;stroke-width:0.6395;" x1="819.0643" x2="1325.3632" y1="101.1285" y2="101.1285"/><rect fill="none" height="7.6741" style="stroke:#595959;stroke-width:1.279;" width="7.6741" x="828.0174" y="116.5201"/><text fill="#000000" font-family="sans-serif" font-size="17.9061" lengthAdjust="spacing" textLength="229.7884" x="843.3655" y="125.3861">websiteUrls : List&lt;Website&gt;</text><line style="stroke:#000000;stroke-width:0.6395;" x1="819.0643" x2="1325.3632" y1="135.7486" y2="135.7486"/><ellipse cx="831.8544" cy="154.9772" fill="#A6A6A6" rx="3.837" ry="3.837" style="stroke:#545454;stroke-width:1.279;"/><text fill="#000000" font-family="sans-serif" font-size="17.9061" lengthAdjust="spacing" textLength="360.1803" x="843.3655" y="160.0062">getProductName(website: Website) : string</text><ellipse cx="831.8544" cy="179.3652" fill="#A6A6A6" rx="3.837" ry="3.837" style="stroke:#545454;stroke-width:1.279;"/><text fill="#000000" font-family="sans-serif" font-size="17.9061" lengthAdjust="spacing" textLength="360.7354" x="843.3655" y="184.3943">getProductPrice(website: Website) : double</text><ellipse cx="831.8544" cy="203.7533" fill="#A6A6A6" rx="3.837" ry="3.837" style="stroke:#545454;stroke-width:1.279;"/><text fill="#000000" font-family="sans-serif" font-size="17.9061" lengthAdjust="spacing" textLength="406.0377" x="843.3655" y="208.7823">getProductDescription(website: Website) : string</text><ellipse cx="831.8544" cy="228.1413" fill="#A6A6A6" rx="3.837" ry="3.837" style="stroke:#545454;stroke-width:1.279;"/><text fill="#000000" font-family="sans-serif" font-size="17.9061" lengthAdjust="spacing" textLength="363.6541" x="843.3655" y="233.1703">getProductImage(website: Website) : string</text><ellipse cx="831.8544" cy="252.5293" fill="#A6A6A6" rx="3.837" ry="3.837" style="stroke:#545454;stroke-width:1.279;"/><text fill="#000000" font-family="sans-serif" font-size="17.9061" lengthAdjust="spacing" textLength="334.7895" x="843.3655" y="257.5584">getProductUrl(website: Website) : string</text><ellipse cx="831.8544" cy="276.9174" fill="#A6A6A6" rx="3.837" ry="3.837" style="stroke:#545454;stroke-width:1.279;"/><text fill="#000000" font-family="sans-serif" font-size="17.9061" lengthAdjust="spacing" textLength="475.6026" x="843.3655" y="281.9464">getProductSpecifications(website: Website) : List&lt;String&gt;</text></g><!--class Website--><g class="entity" data-entity="Website" data-source-line="59" data-uid="ent0006" id="entity_Website"><rect fill="#FFFFFF" height="134.5565" rx="3.1975" ry="3.1975" style="stroke:#000000;stroke-width:0.6395;" width="320.5569" x="1546.7691" y="108.9817"/><ellipse cx="1667.8499" cy="129.4458" fill="#C2C2C2" rx="14.0691" ry="14.0691" style="stroke:#181818;stroke-width:1.279;"/><path d="M1667.1704,138.2989 Q1664.9321,138.2989 1663.4733,137.3597 Q1662.0344,136.4004 1661.3149,134.6817 Q1660.6155,132.9431 1660.6155,130.6449 Q1660.6155,128.0469 1661.4548,126.1883 Q1662.2942,124.3298 1663.9329,123.3305 Q1665.5716,122.3313 1667.9698,122.3313 Q1669.1089,122.3313 1669.9682,122.5711 Q1670.8276,122.791 1671.7069,123.2306 L1670.6677,125.8086 Q1669.8683,125.4089 1669.1688,125.2491 Q1668.4894,125.0892 1667.8699,125.0892 Q1666.371,125.0892 1665.4717,125.7686 Q1664.5724,126.4481 1664.1927,127.6672 Q1663.813,128.8862 1663.813,130.505 Q1663.813,133.083 1664.7323,134.322 Q1665.6516,135.5411 1667.69,135.5411 Q1668.4494,135.5411 1669.2488,135.3412 Q1670.0482,135.1414 1671.1073,134.6618 L1671.1073,137.4996 Q1670.1681,137.8992 1669.1489,138.0991 Q1668.1496,138.2989 1667.1704,138.2989 Z " fill="#000000"/><text fill="#000000" font-family="sans-serif" font-size="17.9061" lengthAdjust="spacing" textLength="67.5237" x="1694.0695" y="136.3933">Website</text><line style="stroke:#000000;stroke-width:0.6395;" x1="1548.0481" x2="1866.0469" y1="149.9099" y2="149.9099"/><ellipse cx="1560.8382" cy="169.1385" fill="none" rx="3.837" ry="3.837" style="stroke:#545454;stroke-width:1.279;"/><text fill="#000000" font-family="sans-serif" font-size="17.9061" lengthAdjust="spacing" textLength="175.2823" x="1572.3493" y="174.1675">websiteName: String</text><ellipse cx="1560.8382" cy="193.5265" fill="none" rx="3.837" ry="3.837" style="stroke:#545454;stroke-width:1.279;"/><text fill="#000000" font-family="sans-serif" font-size="17.9061" lengthAdjust="spacing" textLength="158.3969" x="1572.3493" y="198.5556">websiteURL: String</text><ellipse cx="1560.8382" cy="217.9146" fill="none" rx="3.837" ry="3.837" style="stroke:#545454;stroke-width:1.279;"/><text fill="#000000" font-family="sans-serif" font-size="17.9061" lengthAdjust="spacing" textLength="287.3026" x="1572.3493" y="222.9436">supportedCategories: List&lt;String&gt;</text><line style="stroke:#000000;stroke-width:0.6395;" x1="1548.0481" x2="1866.0469" y1="233.3061" y2="233.3061"/></g><!--class ProductDatabase--><g class="entity" data-entity="ProductDatabase" data-source-line="65" data-uid="ent0007" id="entity_ProductDatabase"><rect fill="#FFFFFF" height="183.3326" rx="3.1975" ry="3.1975" style="stroke:#000000;stroke-width:0.6395;" width="505.419" x="819.4992" y="834.09"/><ellipse cx="993.9938" cy="854.5542" fill="#C2C2C2" rx="14.0691" ry="14.0691" style="stroke:#181818;stroke-width:1.279;"/><path d="M993.3143,863.4073 Q991.076,863.4073 989.6172,862.468 Q988.1783,861.5088 987.4588,859.7901 Q986.7594,858.0514 986.7594,855.7532 Q986.7594,853.1552 987.5987,851.2967 Q988.4381,849.4381 990.0768,848.4389 Q991.7155,847.4397 994.1137,847.4397 Q995.2528,847.4397 996.1121,847.6795 Q996.9715,847.8993 997.8508,848.339 L996.8116,850.917 Q996.0122,850.5173 995.3127,850.3574 Q994.6333,850.1975 994.0137,850.1975 Q992.5149,850.1975 991.6156,850.877 Q990.7163,851.5565 990.3366,852.7755 Q989.9569,853.9946 989.9569,855.6133 Q989.9569,858.1913 990.8762,859.4304 Q991.7955,860.6494 993.8339,860.6494 Q994.5933,860.6494 995.3927,860.4496 Q996.1921,860.2497 997.2512,859.7701 L997.2512,862.6079 Q996.312,863.0076 995.2928,863.2075 Q994.2935,863.4073 993.3143,863.4073 Z " fill="#000000"/><text fill="#000000" font-family="sans-serif" font-size="17.9061" lengthAdjust="spacing" textLength="145.5583" x="1020.2134" y="861.5017">ProductDatabase</text><line style="stroke:#000000;stroke-width:0.6395;" x1="820.7782" x2="1323.6392" y1="875.0183" y2="875.0183"/><line style="stroke:#000000;stroke-width:0.6395;" x1="820.7782" x2="1323.6392" y1="885.2504" y2="885.2504"/><ellipse cx="833.5683" cy="904.4789" fill="#A6A6A6" rx="3.837" ry="3.837" style="stroke:#545454;stroke-width:1.279;"/><text fill="#000000" font-family="sans-serif" font-size="17.9061" lengthAdjust="spacing" textLength="262.3416" x="845.0794" y="909.508">storeProduct(product: Product)</text><ellipse cx="833.5683" cy="928.867" fill="#A6A6A6" rx="3.837" ry="3.837" style="stroke:#545454;stroke-width:1.279;"/><text fill="#000000" font-family="sans-serif" font-size="17.9061" lengthAdjust="spacing" textLength="339.8032" x="845.0794" y="933.896">getProductById(productID: int) : Product</text><ellipse cx="833.5683" cy="953.255" fill="#A6A6A6" rx="3.837" ry="3.837" style="stroke:#545454;stroke-width:1.279;"/><text fill="#000000" font-family="sans-serif" font-size="17.9061" lengthAdjust="spacing" textLength="472.1648" x="845.0794" y="958.284">getProductsByCategory(category: string) : List&lt;Product&gt;</text><ellipse cx="833.5683" cy="977.643" fill="#A6A6A6" rx="3.837" ry="3.837" style="stroke:#545454;stroke-width:1.279;"/><text fill="#000000" font-family="sans-serif" font-size="17.9061" lengthAdjust="spacing" textLength="378.4265" x="845.0794" y="982.6721">searchProducts(query: string) : List&lt;Product&gt;</text><ellipse cx="833.5683" cy="1002.0311" fill="#A6A6A6" rx="3.837" ry="3.837" style="stroke:#545454;stroke-width:1.279;"/><text fill="#000000" font-family="sans-serif" font-size="17.9061" lengthAdjust="spacing" textLength="278.6719" x="845.0794" y="1007.0601">updateProduct(product: Product)</text></g><!--class SearchEngine--><g class="entity" data-entity="SearchEngine" data-source-line="73" data-uid="ent0008" id="entity_SearchEngine"><rect fill="#FFFFFF" height="110.1685" rx="3.1975" ry="3.1975" style="stroke:#000000;stroke-width:0.6395;" width="404.9481" x="104.0218" y="1031.8248"/><ellipse cx="243.6353" cy="1052.2889" fill="#C2C2C2" rx="14.0691" ry="14.0691" style="stroke:#181818;stroke-width:1.279;"/><path d="M242.9559,1061.142 Q240.7176,1061.142 239.2587,1060.2028 Q237.8199,1059.2435 237.1004,1057.5248 Q236.401,1055.7862 236.401,1053.488 Q236.401,1050.89 237.2403,1049.0314 Q238.0796,1047.1729 239.7184,1046.1736 Q241.3571,1045.1744 243.7552,1045.1744 Q244.8944,1045.1744 245.7537,1045.4142 Q246.613,1045.6341 247.4924,1046.0737 L246.4532,1048.6517 Q245.6538,1048.252 244.9543,1048.0921 Q244.2748,1047.9323 243.6553,1047.9323 Q242.1565,1047.9323 241.2572,1048.6117 Q240.3579,1049.2912 239.9782,1050.5103 Q239.5985,1051.7293 239.5985,1053.3481 Q239.5985,1055.9261 240.5178,1057.1651 Q241.437,1058.3842 243.4755,1058.3842 Q244.2349,1058.3842 245.0343,1058.1843 Q245.8336,1057.9845 246.8928,1057.5049 L246.8928,1060.3427 Q245.9535,1060.7423 244.9343,1060.9422 Q243.9351,1061.142 242.9559,1061.142 Z " fill="#000000"/><text fill="#000000" font-family="sans-serif" font-size="17.9061" lengthAdjust="spacing" textLength="114.8494" x="269.855" y="1059.2364">SearchEngine</text><line style="stroke:#000000;stroke-width:0.6395;" x1="105.3008" x2="507.6909" y1="1072.753" y2="1072.753"/><line style="stroke:#000000;stroke-width:0.6395;" x1="105.3008" x2="507.6909" y1="1082.9851" y2="1082.9851"/><ellipse cx="118.0909" cy="1102.2137" fill="#A6A6A6" rx="3.837" ry="3.837" style="stroke:#545454;stroke-width:1.279;"/><text fill="#000000" font-family="sans-serif" font-size="17.9061" lengthAdjust="spacing" textLength="265.2424" x="129.6019" y="1107.2427">indexProduct(product: Product)</text><ellipse cx="118.0909" cy="1126.6017" fill="#A6A6A6" rx="3.837" ry="3.837" style="stroke:#545454;stroke-width:1.279;"/><text fill="#000000" font-family="sans-serif" font-size="17.9061" lengthAdjust="spacing" textLength="371.6939" x="129.6019" y="1131.6307">searchProducts(query: string) : SearchResult</text></g><!--class ProductComparison--><g class="entity" data-entity="ProductComparison" data-source-line="78" data-uid="ent0009" id="entity_ProductComparison"><rect fill="#FFFFFF" height="110.1685" rx="3.1975" ry="3.1975" style="stroke:#000000;stroke-width:0.6395;" width="601.2343" x="771.6003" y="1176.3527"/><ellipse cx="982.462" cy="1196.8169" fill="#C2C2C2" rx="14.0691" ry="14.0691" style="stroke:#181818;stroke-width:1.279;"/><path d="M981.7826,1205.67 Q979.5443,1205.67 978.0854,1204.7307 Q976.6466,1203.7715 975.9271,1202.0528 Q975.2277,1200.3142 975.2277,1198.0159 Q975.2277,1195.418 976.067,1193.5594 Q976.9064,1191.7008 978.5451,1190.7016 Q980.1838,1189.7024 982.582,1189.7024 Q983.7211,1189.7024 984.5804,1189.9422 Q985.4397,1190.162 986.3191,1190.6017 L985.2799,1193.1797 Q984.4805,1192.78 983.781,1192.6201 Q983.1016,1192.4602 982.482,1192.4602 Q980.9832,1192.4602 980.0839,1193.1397 Q979.1846,1193.8192 978.8049,1195.0382 Q978.4252,1196.2573 978.4252,1197.876 Q978.4252,1200.454 979.3445,1201.6931 Q980.2638,1202.9121 982.3022,1202.9121 Q983.0616,1202.9121 983.861,1202.7123 Q984.6603,1202.5125 985.7195,1202.0328 L985.7195,1204.8706 Q984.7803,1205.2703 983.761,1205.4702 Q982.7618,1205.67 981.7826,1205.67 Z " fill="#000000"/><text fill="#000000" font-family="sans-serif" font-size="17.9061" lengthAdjust="spacing" textLength="168.6392" x="1008.6817" y="1203.7644">ProductComparison</text><line style="stroke:#000000;stroke-width:0.6395;" x1="772.8793" x2="1371.5556" y1="1217.281" y2="1217.281"/><line style="stroke:#000000;stroke-width:0.6395;" x1="772.8793" x2="1371.5556" y1="1227.5131" y2="1227.5131"/><ellipse cx="785.6694" cy="1246.7416" fill="#A6A6A6" rx="3.837" ry="3.837" style="stroke:#545454;stroke-width:1.279;"/><text fill="#000000" font-family="sans-serif" font-size="17.9061" lengthAdjust="spacing" textLength="567.98" x="797.1805" y="1251.7707">compare(product1: Product, product2: Product) : ComparisonResult</text><rect fill="#808080" height="7.6741" style="stroke:#595959;stroke-width:1.279;" width="7.6741" x="781.8324" y="1267.2926"/><text fill="#000000" font-family="sans-serif" font-size="17.9061" lengthAdjust="spacing" textLength="561.0145" x="797.1805" y="1276.1587">highlightDifferences(comparisonResult: ComparisonResult) : string</text></g><!--class ComparisonResult--><g class="entity" data-entity="ComparisonResult" data-source-line="83" data-uid="ent0010" id="entity_ComparisonResult"><rect fill="#FFFFFF" height="134.5565" rx="3.1975" ry="3.1975" style="stroke:#000000;stroke-width:0.6395;" width="236.5058" x="1588.7973" y="1164.1638"/><ellipse cx="1626.5106" cy="1184.6279" fill="#C2C2C2" rx="14.0691" ry="14.0691" style="stroke:#181818;stroke-width:1.279;"/><path d="M1625.8311,1193.4811 Q1623.5928,1193.4811 1622.134,1192.5418 Q1620.6951,1191.5825 1619.9756,1189.8639 Q1619.2762,1188.1252 1619.2762,1185.827 Q1619.2762,1183.229 1620.1155,1181.3704 Q1620.9549,1179.5119 1622.5936,1178.5127 Q1624.2323,1177.5134 1626.6305,1177.5134 Q1627.7696,1177.5134 1628.6289,1177.7532 Q1629.4883,1177.9731 1630.3676,1178.4127 L1629.3284,1180.9907 Q1628.529,1180.591 1627.8295,1180.4312 Q1627.1501,1180.2713 1626.5306,1180.2713 Q1625.0317,1180.2713 1624.1324,1180.9508 Q1623.2331,1181.6302 1622.8534,1182.8493 Q1622.4737,1184.0683 1622.4737,1185.6871 Q1622.4737,1188.2651 1623.393,1189.5041 Q1624.3123,1190.7232 1626.3507,1190.7232 Q1627.1101,1190.7232 1627.9095,1190.5233 Q1628.7089,1190.3235 1629.768,1189.8439 L1629.768,1192.6817 Q1628.8288,1193.0814 1627.8096,1193.2812 Q1626.8103,1193.4811 1625.8311,1193.4811 Z " fill="#000000"/><text fill="#000000" font-family="sans-serif" font-size="17.9061" lengthAdjust="spacing" textLength="154.4039" x="1648.5341" y="1191.5755">ComparisonResult</text><line style="stroke:#000000;stroke-width:0.6395;" x1="1590.0763" x2="1824.0241" y1="1205.0921" y2="1205.0921"/><ellipse cx="1602.8664" cy="1224.3206" fill="none" rx="3.837" ry="3.837" style="stroke:#545454;stroke-width:1.279;"/><text fill="#000000" font-family="sans-serif" font-size="17.9061" lengthAdjust="spacing" textLength="152.2731" x="1614.3775" y="1229.3496">product1: Product</text><ellipse cx="1602.8664" cy="1248.7086" fill="none" rx="3.837" ry="3.837" style="stroke:#545454;stroke-width:1.279;"/><text fill="#000000" font-family="sans-serif" font-size="17.9061" lengthAdjust="spacing" textLength="152.2731" x="1614.3775" y="1253.7377">product2: Product</text><rect fill="none" height="7.6741" style="stroke:#595959;stroke-width:1.279;" width="7.6741" x="1599.0294" y="1269.2597"/><text fill="#000000" font-family="sans-serif" font-size="17.9061" lengthAdjust="spacing" textLength="203.2516" x="1614.3775" y="1278.1257">differences: List&lt;String&gt;</text><line style="stroke:#000000;stroke-width:0.6395;" x1="1590.0763" x2="1824.0241" y1="1288.4882" y2="1288.4882"/></g><!--class PriceAlert--><g class="entity" data-entity="PriceAlert" data-source-line="90" data-uid="ent0011" id="entity_PriceAlert"><rect fill="#FFFFFF" height="158.9445" rx="3.1975" ry="3.1975" style="stroke:#000000;stroke-width:0.6395;" width="228.6809" x="957.8751" y="630.1265"/><ellipse cx="1025.9988" cy="650.5907" fill="#C2C2C2" rx="14.0691" ry="14.0691" style="stroke:#181818;stroke-width:1.279;"/><path d="M1025.3193,659.4438 Q1023.081,659.4438 1021.6221,658.5045 Q1020.1833,657.5453 1019.4638,655.8266 Q1018.7644,654.0879 1018.7644,651.7897 Q1018.7644,649.1917 1019.6037,647.3332 Q1020.4431,645.4746 1022.0818,644.4754 Q1023.7205,643.4762 1026.1187,643.4762 Q1027.2578,643.4762 1028.1171,643.716 Q1028.9764,643.9358 1029.8558,644.3755 L1028.8166,646.9535 Q1028.0172,646.5538 1027.3177,646.3939 Q1026.6383,646.234 1026.0187,646.234 Q1024.5199,646.234 1023.6206,646.9135 Q1022.7213,647.593 1022.3416,648.812 Q1021.9619,650.0311 1021.9619,651.6498 Q1021.9619,654.2278 1022.8812,655.4669 Q1023.8005,656.6859 1025.8389,656.6859 Q1026.5983,656.6859 1027.3977,656.4861 Q1028.197,656.2862 1029.2562,655.8066 L1029.2562,658.6444 Q1028.317,659.0441 1027.2977,659.2439 Q1026.2985,659.4438 1025.3193,659.4438 Z " fill="#000000"/><text fill="#000000" font-family="sans-serif" font-size="17.9061" lengthAdjust="spacing" textLength="81.5621" x="1052.2184" y="657.5382">PriceAlert</text><line style="stroke:#000000;stroke-width:0.6395;" x1="959.1541" x2="1185.277" y1="671.0548" y2="671.0548"/><rect fill="none" height="7.6741" style="stroke:#595959;stroke-width:1.279;" width="7.6741" x="968.1072" y="686.4463"/><text fill="#000000" font-family="sans-serif" font-size="17.9061" lengthAdjust="spacing" textLength="90.4077" x="983.4553" y="695.3124">user : User</text><rect fill="none" height="7.6741" style="stroke:#595959;stroke-width:1.279;" width="7.6741" x="968.1072" y="710.8344"/><text fill="#000000" font-family="sans-serif" font-size="17.9061" lengthAdjust="spacing" textLength="146.6864" x="983.4553" y="719.7004">product : Product</text><rect fill="none" height="7.6741" style="stroke:#595959;stroke-width:1.279;" width="7.6741" x="968.1072" y="735.2224"/><text fill="#000000" font-family="sans-serif" font-size="17.9061" lengthAdjust="spacing" textLength="195.4266" x="983.4553" y="744.0884">thresholdPrice : double</text><line style="stroke:#000000;stroke-width:0.6395;" x1="959.1541" x2="1185.277" y1="754.451" y2="754.451"/><ellipse cx="971.9442" cy="773.6795" fill="#A6A6A6" rx="3.837" ry="3.837" style="stroke:#545454;stroke-width:1.279;"/><text fill="#000000" font-family="sans-serif" font-size="17.9061" lengthAdjust="spacing" textLength="189.1595" x="983.4553" y="778.7085">isTriggered() : boolean</text></g><!--class PriceMonitor--><g class="entity" data-entity="PriceMonitor" data-source-line="97" data-uid="ent0012" id="entity_PriceMonitor"><rect fill="#FFFFFF" height="183.3326" rx="3.1975" ry="3.1975" style="stroke:#000000;stroke-width:0.6395;" width="595.0926" x="8.9531" y="803.3938"/><ellipse cx="246.5665" cy="823.858" fill="#C2C2C2" rx="14.0691" ry="14.0691" style="stroke:#181818;stroke-width:1.279;"/><path d="M245.887,832.7111 Q243.6487,832.7111 242.1899,831.7718 Q240.751,830.8126 240.0315,829.0939 Q239.3321,827.3552 239.3321,825.057 Q239.3321,822.459 240.1714,820.6005 Q241.0108,818.7419 242.6495,817.7427 Q244.2882,816.7435 246.6864,816.7435 Q247.8255,816.7435 248.6848,816.9833 Q249.5442,817.2031 250.4235,817.6428 L249.3843,820.2208 Q248.5849,819.8211 247.8855,819.6612 Q247.206,819.5013 246.5865,819.5013 Q245.0876,819.5013 244.1883,820.1808 Q243.289,820.8603 242.9093,822.0793 Q242.5296,823.2984 242.5296,824.9171 Q242.5296,827.4951 243.4489,828.7342 Q244.3682,829.9532 246.4066,829.9532 Q247.166,829.9532 247.9654,829.7534 Q248.7648,829.5535 249.824,829.0739 L249.824,831.9117 Q248.8847,832.3114 247.8655,832.5112 Q246.8662,832.7111 245.887,832.7111 Z " fill="#000000"/><text fill="#000000" font-family="sans-serif" font-size="17.9061" lengthAdjust="spacing" textLength="108.9942" x="272.7862" y="830.8055">PriceMonitor</text><line style="stroke:#000000;stroke-width:0.6395;" x1="10.2321" x2="602.7666" y1="844.3221" y2="844.3221"/><rect fill="none" height="7.6741" style="stroke:#595959;stroke-width:1.279;" width="7.6741" x="19.1851" y="859.7136"/><text fill="#000000" font-family="sans-serif" font-size="17.9061" lengthAdjust="spacing" textLength="230.8627" x="34.5332" y="868.5797">priceAlerts: List&lt;PriceAlert&gt;</text><line style="stroke:#000000;stroke-width:0.6395;" x1="10.2321" x2="602.7666" y1="878.9422" y2="878.9422"/><ellipse cx="23.0222" cy="898.1708" fill="#A6A6A6" rx="3.837" ry="3.837" style="stroke:#545454;stroke-width:1.279;"/><text fill="#000000" font-family="sans-serif" font-size="17.9061" lengthAdjust="spacing" textLength="561.8383" x="34.5332" y="903.1998">addPriceAlert(user: User, product: Product, thresholdPrice: double)</text><ellipse cx="23.0222" cy="922.5588" fill="#A6A6A6" rx="3.837" ry="3.837" style="stroke:#545454;stroke-width:1.279;"/><text fill="#000000" font-family="sans-serif" font-size="17.9061" lengthAdjust="spacing" textLength="393.8079" x="34.5332" y="927.5878">removePriceAlert(user: User, product: Product)</text><ellipse cx="23.0222" cy="946.9468" fill="#A6A6A6" rx="3.837" ry="3.837" style="stroke:#545454;stroke-width:1.279;"/><text fill="#000000" font-family="sans-serif" font-size="17.9061" lengthAdjust="spacing" textLength="151.0912" x="34.5332" y="951.9758">checkPriceDrops()</text><ellipse cx="23.0222" cy="971.3348" fill="#A6A6A6" rx="3.837" ry="3.837" style="stroke:#545454;stroke-width:1.279;"/><text fill="#000000" font-family="sans-serif" font-size="17.9061" lengthAdjust="spacing" textLength="489.7484" x="34.5332" y="976.3639">notifyUser(user: User, product: Product, newPrice: double)</text></g><!--link User to SearchResult--><g class="link" data-entity-1="User" data-entity-2="SearchResult" data-source-line="106" data-uid="lnk13" id="link_User_SearchResult"><path codeLine="106" d="M553.4526,496.7131 C687.2113,472.7317 846.6142,444.1459 952.8231,425.1014" fill="none" id="User-SearchResult" style="stroke:#000000;stroke-width:1.279;"/><polygon fill="#000000" points="655.1101,455.4146,643.0596,453.7566,644.3865,461.1564,655.1101,455.4146" style="stroke:#000000;stroke-width:1.279;"/><text fill="#000000" font-family="sans-serif" font-size="16.6271" lengthAdjust="spacing" textLength="72.6273" x="660.3266" y="462.9946">performs</text><text fill="#000000" font-family="sans-serif" font-size="16.6271" lengthAdjust="spacing" textLength="9.5107" x="563.2849" y="513.2087">1</text><text fill="#000000" font-family="sans-serif" font-size="16.6271" lengthAdjust="spacing" textLength="27.5844" x="915.4084" y="445.4658">0..*</text></g><!--link User to Product--><g class="link" data-entity-1="User" data-entity-2="Product" data-source-line="107" data-uid="lnk14" id="link_User_Product"><path codeLine="107" d="M553.5166,539.7646 C770.6666,542.7446 1095.1128,556.6731 1372.8239,607.2834 C1441.0974,619.7282 1515.0625,641.5736 1575.8921,661.8843" fill="none" id="User-Product" style="stroke:#000000;stroke-width:1.279;"/><polygon fill="#000000" points="1046.5932,535.4876,1035.5519,530.3831,1034.6603,537.8479,1046.5932,535.4876" style="stroke:#000000;stroke-width:1.279;"/><text fill="#000000" font-family="sans-serif" font-size="16.6271" lengthAdjust="spacing" textLength="58.1451" x="1051.7544" y="541.1804">wishlist</text><text fill="#000000" font-family="sans-serif" font-size="16.6271" lengthAdjust="spacing" textLength="9.5107" x="563.3513" y="557.9418">1</text><text fill="#000000" font-family="sans-serif" font-size="16.6271" lengthAdjust="spacing" textLength="27.5844" x="1538.4415" y="676.9862">0..*</text></g><!--link SearchResult to Product--><g class="link" data-entity-1="SearchResult" data-entity-2="Product" data-source-line="108" data-uid="lnk15" id="link_SearchResult_Product"><path codeLine="108" d="M1191.7163,414.038 C1283.0887,425.9839 1410.1454,451.8455 1508.3988,507.5207 C1537.2021,523.8409 1564.5345,545.5968 1589.181,568.7981" fill="none" id="SearchResult-Product" style="stroke:#000000;stroke-width:1.279;"/><polygon fill="#000000" points="1429.9435,457.8532,1420.527,450.1529,1417.7993,457.1585,1429.9435,457.8532" style="stroke:#000000;stroke-width:1.279;"/><text fill="#000000" font-family="sans-serif" font-size="16.6271" lengthAdjust="spacing" textLength="66.176" x="1435.4953" y="461.9842">contains</text><text fill="#000000" font-family="sans-serif" font-size="16.6271" lengthAdjust="spacing" textLength="9.5107" x="1201.6178" y="433.5207">1</text><text fill="#000000" font-family="sans-serif" font-size="16.6271" lengthAdjust="spacing" textLength="27.5844" x="1553.1155" y="554.1966">0..*</text></g><!--link WebScraper to Website--><g class="link" data-entity-1="WebScraper" data-entity-2="Website" data-source-line="109" data-uid="lnk16" id="link_WebScraper_Website"><path codeLine="109" d="M1327.0226,176.2575 C1401.0644,176.2575 1479.8769,176.2575 1546.3214,176.2575" fill="none" id="WebScraper-Website" style="stroke:#000000;stroke-width:1.279;"/><polygon fill="#000000" points="1433.5768,164.5584,1422.0081,160.7995,1422.0081,168.3173,1433.5768,164.5584" style="stroke:#000000;stroke-width:1.279;"/><text fill="#000000" font-family="sans-serif" font-size="16.6271" lengthAdjust="spacing" textLength="59.708" x="1438.6929" y="171.0098">scrapes</text><text fill="#000000" font-family="sans-serif" font-size="16.6271" lengthAdjust="spacing" textLength="9.5107" x="1337.1618" y="194.4743">1</text><text fill="#000000" font-family="sans-serif" font-size="16.6271" lengthAdjust="spacing" textLength="27.5844" x="1508.8717" y="194.7218">0..*</text></g><!--link WebScraper to Product--><g class="link" data-entity-1="WebScraper" data-entity-2="Product" data-source-line="110" data-uid="lnk17" id="link_WebScraper_Product"><path codeLine="110" d="M1327.0226,286.8278 C1342.7928,295.6658 1358.1921,304.8746 1372.8239,314.3904 C1472.8808,379.4025 1558.8429,483.5393 1618.3424,568.5934" fill="none" id="WebScraper-Product" style="stroke:#000000;stroke-width:1.279;"/></g><!--link ProductDatabase to Product--><g class="link" data-entity-1="ProductDatabase" data-entity-2="Product" data-source-line="111" data-uid="lnk18" id="link_ProductDatabase_Product"><path codeLine="111" d="M1325.2064,839.7049 C1411.1302,810.326 1503.6793,778.6834 1575.9944,753.9729" fill="none" id="ProductDatabase-Product" style="stroke:#000000;stroke-width:1.279;"/><polygon fill="#000000" points="1438.9885,765.747,1426.8259,765.9324,1429.2577,773.046,1438.9885,765.747" style="stroke:#000000;stroke-width:1.279;"/><text fill="#000000" font-family="sans-serif" font-size="16.6271" lengthAdjust="spacing" textLength="48.2353" x="1444.4484" y="774.267">stores</text><text fill="#000000" font-family="sans-serif" font-size="16.6271" lengthAdjust="spacing" textLength="9.5107" x="1335.2749" y="854.5602">1</text><text fill="#000000" font-family="sans-serif" font-size="16.6271" lengthAdjust="spacing" textLength="27.5844" x="1538.5513" y="775.8376">0..*</text></g><!--link SearchEngine to Product--><g class="link" data-entity-1="SearchEngine" data-entity-2="Product" data-source-line="112" data-uid="lnk19" id="link_SearchEngine_Product"><path codeLine="112" d="M509.5442,1100.8784 C774.5932,1116.0986 1223.845,1130.2445 1372.8239,1063.8895 C1472.868,1019.3288 1557.0267,928.9285 1615.7076,850.602" fill="none" id="SearchEngine-Product" style="stroke:#000000;stroke-width:1.279;"/><polygon fill="#000000" points="1045.2017,1050.7792,1033.0886,1049.6659,1034.7476,1056.9984,1045.2017,1050.7792" style="stroke:#000000;stroke-width:1.279;"/><text fill="#000000" font-family="sans-serif" font-size="16.6271" lengthAdjust="spacing" textLength="60.3066" x="1050.4754" y="1058.6417">indexes</text><text fill="#000000" font-family="sans-serif" font-size="16.6271" lengthAdjust="spacing" textLength="9.5107" x="518.9604" y="1119.7989">1</text><text fill="#000000" font-family="sans-serif" font-size="16.6271" lengthAdjust="spacing" textLength="27.5844" x="1582.1598" y="878.1348">0..*</text></g><!--link ProductComparison to ComparisonResult--><g class="link" data-entity-1="ProductComparison" data-entity-2="ComparisonResult" data-source-line="113" data-uid="lnk20" id="link_ProductComparison_ComparisonResult"><path codeLine="113" d="M1373.425,1231.4396 C1449.8074,1231.4396 1527.4561,1231.4396 1588.4648,1231.4396" fill="none" id="ProductComparison-ComparisonResult" style="stroke:#000000;stroke-width:1.279;"/><polygon fill="#000000" points="1423.9843,1219.7406,1412.4155,1215.9816,1412.4155,1223.4995,1423.9843,1219.7406" style="stroke:#000000;stroke-width:1.279;"/><text fill="#000000" font-family="sans-serif" font-size="16.6271" lengthAdjust="spacing" textLength="78.7959" x="1429.1003" y="1226.1919">generates</text><text fill="#000000" font-family="sans-serif" font-size="16.6271" lengthAdjust="spacing" textLength="9.5107" x="1383.4645" y="1249.5857">1</text><text fill="#000000" font-family="sans-serif" font-size="16.6271" lengthAdjust="spacing" textLength="27.5844" x="1551.1145" y="1250.1161">0..*</text></g><!--link ProductComparison to Product--><g class="link" data-entity-1="ProductComparison" data-entity-2="Product" data-source-line="114" data-uid="lnk21" id="link_ProductComparison_Product"><path codeLine="114" d="M1373.0925,1191.6753 C1421.8995,1175.2528 1469.2228,1152.2818 1508.3988,1120.1659 C1591.739,1051.854 1642.2854,939.9664 1671.3189,850.2311" fill="none" id="ProductComparison-Product" style="stroke:#000000;stroke-width:1.279;"/></g><!--link User to PriceAlert--><g class="link" data-entity-1="User" data-entity-2="PriceAlert" data-source-line="115" data-uid="lnk22" id="link_User_PriceAlert"><path codeLine="115" d="M553.4526,595.12 C689.181,625.1512 851.2954,661.0146 957.4531,684.4972" fill="none" id="User-PriceAlert" style="stroke:#000000;stroke-width:1.279;"/><polygon fill="#000000" points="662.7336,604.7677,652.2499,598.5986,650.626,605.9389,662.7336,604.7677" style="stroke:#000000;stroke-width:1.279;"/><text fill="#000000" font-family="sans-serif" font-size="16.6271" lengthAdjust="spacing" textLength="56.898" x="668.0006" y="609.8376">creates</text><text fill="#000000" font-family="sans-serif" font-size="16.6271" lengthAdjust="spacing" textLength="9.5107" x="563.2849" y="615.4596">1</text><text fill="#000000" font-family="sans-serif" font-size="16.6271" lengthAdjust="spacing" textLength="27.5844" x="920.008" y="701.1305">0..*</text></g><!--link PriceAlert to Product--><g class="link" data-entity-1="PriceAlert" data-entity-2="Product" data-source-line="116" data-uid="lnk23" id="link_PriceAlert_Product"><path codeLine="116" d="M1186.8944,709.6041 C1296.1729,709.6041 1461.3569,709.6041 1575.8665,709.6041" fill="none" id="PriceAlert-Product" style="stroke:#000000;stroke-width:1.279;"/><polygon fill="#000000" points="1427.8213,697.905,1416.2525,694.1461,1416.2525,701.6639,1427.8213,697.905" style="stroke:#000000;stroke-width:1.279;"/><text fill="#000000" font-family="sans-serif" font-size="16.6271" lengthAdjust="spacing" textLength="71.0644" x="1432.9373" y="704.3564">monitors</text><text fill="#000000" font-family="sans-serif" font-size="16.6271" lengthAdjust="spacing" textLength="27.5844" x="1196.7305" y="728.2458">0..*</text><text fill="#000000" font-family="sans-serif" font-size="16.6271" lengthAdjust="spacing" textLength="9.5107" x="1556.5484" y="728.2459">1</text></g><!--link PriceMonitor to PriceAlert--><g class="link" data-entity-1="PriceMonitor" data-entity-2="PriceAlert" data-source-line="117" data-uid="lnk24" id="link_PriceMonitor_PriceAlert"><path codeLine="117" d="M604.4723,822.9626 C728.2164,792.8932 864.4947,759.7668 957.6321,737.1412" fill="none" id="PriceMonitor-PriceAlert" style="stroke:#000000;stroke-width:1.279;"/><polygon fill="#000000" points="655.0297,783.5594,642.9005,782.6386,644.6757,789.9438,655.0297,783.5594" style="stroke:#000000;stroke-width:1.279;"/><text fill="#000000" font-family="sans-serif" font-size="16.6271" lengthAdjust="spacing" textLength="72.0453" x="660.3266" y="791.5208">manages</text><text fill="#000000" font-family="sans-serif" font-size="16.6271" lengthAdjust="spacing" textLength="9.5107" x="614.4055" y="838.7429">1</text><text fill="#000000" font-family="sans-serif" font-size="16.6271" lengthAdjust="spacing" textLength="27.5844" x="920.2019" y="758.1341">0..*</text></g><!--link PriceMonitor to ProductDatabase--><g class="link" data-entity-1="PriceMonitor" data-entity-2="ProductDatabase" data-source-line="118" data-uid="lnk25" id="link_PriceMonitor_ProductDatabase"><path codeLine="118" d="M604.4723,906.9935 C675.4572,909.8457 750.5606,912.8642 819.2818,915.6268" fill="none" id="PriceMonitor-ProductDatabase" style="stroke:#000000;stroke-width:1.279;"/><polygon fill="#000000" points="664.7979,897.1244,653.3895,892.904,653.0876,900.4157,664.7979,897.1244" style="stroke:#000000;stroke-width:1.279;"/><text fill="#000000" font-family="sans-serif" font-size="16.6271" lengthAdjust="spacing" textLength="52.4586" x="669.9191" y="903.3189">checks</text><text fill="#000000" font-family="sans-serif" font-size="16.6271" lengthAdjust="spacing" textLength="9.5107" x="614.4055" y="925.531">1</text><text fill="#000000" font-family="sans-serif" font-size="16.6271" lengthAdjust="spacing" textLength="9.5107" x="799.4813" y="933.4516">1</text></g><!--link WebScraper to ProductDatabase--><!--link PriceMonitor to SearchEngine--><!--SRC=[bLPBRziu4BxhLmnygRDU5quNs8En2D34NMo0R14aAN9Ox84Mnn8HYTIIL5EXo7_VuKDFosbpiZNyPkQR1sTeXIqGSgRvCzC8bHOf0cyaAqLge5HIMAM5pC0qnc89QS6C0IvOfba90CaxMA_NS6-Rmg7eVsAUXAoOE_wUW3EXqboh4i7g6aaIJBWpW4kMFcLQrP9VgK9fUCo5nN2YD4STf9S5mRpqJoNjLFPHQ_Ky5huaByc01wy4_BRP92Pb56p9li7lcmqy2sxp90RmILfX1HeVGM3unQ3sDDSr_RlUmHQ4jEqtPGX9OgpBZXCQP3hD_nA64jRGoGtz-oCSNxZpPs7oWcJjqQrMl4wjFyEIYM9BMOp6Lby5FaV0iWg_MuY2CmTWd3-ensXo7fAgaiB7A38jo4pyUsmWtq7_gr4tRN0HO6zTRtmiK1_x-nLihj7agk0UjGMkwds1PwuE8PiH6H8QzGSvNKtpkU9eKYqgAvGSoKEBjXwSH9GimrjcymdE-_YYYv7Og5gd-8XxGvqsEacPnIpKRW2lC1K7GMV4mxIrkuzbxQAxz_cxGrCN8SILJ-4S8JFJ02ihIZIMbHKTxeZ70tqxww4vhwYIIgAqm_Qa4EvJpQhOfAx3Gb0KSUSZnddX0QlC5T4x_KpPNaRy5YBgR4Xt1FT5dSLtLHZXTttjtk3bsjNn3NWAz0te-r4bPnNdQzlsYYzhL7Fv6zxNDlLtDqEfgQjAQOlyAhGMpPTJJjh4CSlsp4HdRfJWgsEW3- -okURBxbxvQ-L2YgTZhBbi8gDcsNPzTzldslFLyJ2dK5USx9wcFhaudsGcP0nQI8xVNWtwHso6b_4emrT-AWf3K-NxO4gsdiu7CosAFlJUoNYl7ntGnSj5HdCuo-rE70weKQPebka4UAmwwDMEvHGJI1wH6mW_38LhtZCuRhKmJVnbXh_xrJuxNlfft-z0ukkMuc22ZpfiFLu2unbj7hJ8CgB6boxklL85CZai3wb4KksIQ1dqAwkLNCGTEDX9Zc3WrrNk9_OJcT5Ogg_uavR2PiqnVV8AEwqgi_H2gQmuD4xh1rIaM-tJ9HbASuT564-vg48n_2DaSRwW3rXith__PJ7UDLkW1N1GkZHmCGU-xUhKlJykaf65K_YKdbfCI6Tti6h6wC4QzUSJi6-sq1tJ-NRAgnzvfkCO1yCfj9yL7dvykySwH_Tg2nbAr3IbvjK7t6VJsdOB9KfZPwMxCn7dDCuxnjlsGTs1suO_RRraahRYIONUU9jQ8kJQqsd4hhfXZQgjRwS23nQi0ksc5JtZDQQktqP5-oSNdAFyTsfuJA273IkL91Mzm8amB4h64VRD8hvE0Dwv6m5qJIWQHm4hgZHD7R18R_GIoprgGrY706RWytb2NoYvboGl_mC0]--></g></svg>