<svg xmlns="http://www.w3.org/2000/svg" xmlns:xlink="http://www.w3.org/1999/xlink" contentStyleType="text/css" data-diagram-type="SEQUENCE" height="986.363px" preserveAspectRatio="none" style="width:1875px;height:986px;background:#FFFFFF;" version="1.1" viewBox="0 0 1875 986" width="1875.6829px" zoomAndPan="magnify"><defs/><g><g><title>User</title><rect fill="#000000" fill-opacity="0.00000" height="855.5841" width="11.5872" x="27.9671" y="121.7643"/><line style="stroke:#181818;stroke-width:0.7242;stroke-dasharray:5.0,5.0;" x1="33.3133" x2="33.3133" y1="121.7643" y2="977.3484"/></g><g><title>Frontend</title><rect fill="#000000" fill-opacity="0.00000" height="855.5841" width="11.5872" x="363.018" y="121.7643"/><line style="stroke:#181818;stroke-width:0.7242;stroke-dasharray:5.0,5.0;" x1="368.5351" x2="368.5351" y1="121.7643" y2="977.3484"/></g><g><title>Backend</title><rect fill="#000000" fill-opacity="0.00000" height="855.5841" width="11.5872" x="706.1654" y="121.7643"/><line style="stroke:#181818;stroke-width:0.7242;stroke-dasharray:5.0,5.0;" x1="711.7362" x2="711.7362" y1="121.7643" y2="977.3484"/></g><g><title>Database</title><rect fill="#000000" fill-opacity="0.00000" height="855.5841" width="11.5872" x="979.2303" y="121.7643"/><line style="stroke:#181818;stroke-width:0.7242;stroke-dasharray:5.0,5.0;" x1="984.9893" x2="984.9893" y1="121.7643" y2="977.3484"/></g><g><title>LLMModule</title><rect fill="#000000" fill-opacity="0.00000" height="855.5841" width="11.5872" x="1114.9135" y="121.7643"/><line style="stroke:#181818;stroke-width:0.7242;stroke-dasharray:5.0,5.0;" x1="1119.7601" x2="1119.7601" y1="121.7643" y2="977.3484"/></g><g><title>ScraperService</title><rect fill="#000000" fill-opacity="0.00000" height="855.5841" width="11.5872" x="1329.7777" y="121.7643"/><line style="stroke:#181818;stroke-width:0.7242;stroke-dasharray:5.0,5.0;" x1="1334.8227" x2="1334.8227" y1="121.7643" y2="977.3484"/></g><g><title>NotificationService</title><rect fill="#000000" fill-opacity="0.00000" height="855.5841" width="11.5872" x="1524.0833" y="121.7643"/><line style="stroke:#181818;stroke-width:0.7242;stroke-dasharray:5.0,5.0;" x1="1528.9575" x2="1528.9575" y1="121.7643" y2="977.3484"/></g><g><title>PricePredictionModel</title><rect fill="#000000" fill-opacity="0.00000" height="855.5841" width="11.5872" x="1749.9713" y="121.7643"/><line style="stroke:#181818;stroke-width:0.7242;stroke-dasharray:5.0,5.0;" x1="1755.2989" x2="1755.2989" y1="121.7643" y2="977.3484"/></g><g class="participant participant-head" data-participant="User"><text fill="#000000" font-family="sans-serif" font-size="20.2777" lengthAdjust="spacing" textLength="44.3471" x="7.242" y="115.823">User</text><ellipse cx="33.7608" cy="19.5535" fill="#E2E2F0" rx="11.5872" ry="11.5872" style="stroke:#181818;stroke-width:0.7242;"/><path d="M33.7608,31.1407 L33.7608,70.2476 M14.9315,42.7279 L52.59,42.7279 M33.7608,70.2476 L14.9315,91.9736 M33.7608,70.2476 L52.59,91.9736" fill="none" style="stroke:#181818;stroke-width:0.7242;"/></g><g class="participant participant-head" data-participant="Frontend"><rect fill="#E2E2F0" height="47.8957" rx="3.621" ry="3.621" style="stroke:#181818;stroke-width:0.7242;" width="107.7348" x="314.9442" y="72.4202"/><text fill="#000000" font-family="sans-serif" font-size="20.2777" lengthAdjust="spacing" textLength="87.4572" x="325.083" y="104.2357">Frontend</text></g><g class="participant participant-head" data-participant="Backend"><rect fill="#E2E2F0" height="47.8957" rx="3.621" ry="3.621" style="stroke:#181818;stroke-width:0.7242;" width="101.834" x="661.042" y="72.4202"/><text fill="#000000" font-family="sans-serif" font-size="20.2777" lengthAdjust="spacing" textLength="81.5564" x="671.1809" y="104.2357">Backend</text></g><g class="participant participant-head" data-participant="Database"><rect fill="#E2E2F0" height="47.8957" rx="3.621" ry="3.621" style="stroke:#181818;stroke-width:0.7242;" width="110.1479" x="929.95" y="72.4202"/><text fill="#000000" font-family="sans-serif" font-size="20.2777" lengthAdjust="spacing" textLength="89.8702" x="940.0888" y="104.2357">Database</text></g><g class="participant participant-head" data-participant="LLMModule"><rect fill="#E2E2F0" height="47.8957" rx="3.621" ry="3.621" style="stroke:#181818;stroke-width:0.7242;" width="132.2504" x="1054.5819" y="72.4202"/><text fill="#000000" font-family="sans-serif" font-size="20.2777" lengthAdjust="spacing" textLength="111.9728" x="1064.7207" y="104.2357">LLMModule</text></g><g class="participant participant-head" data-participant="ScraperService"><rect fill="#E2E2F0" height="47.8957" rx="3.621" ry="3.621" style="stroke:#181818;stroke-width:0.7242;" width="160.8215" x="1255.1605" y="72.4202"/><text fill="#000000" font-family="sans-serif" font-size="20.2777" lengthAdjust="spacing" textLength="140.5439" x="1265.2993" y="104.2357">ScraperService</text></g><g class="participant participant-head" data-participant="NotificationService"><rect fill="#E2E2F0" height="47.8957" rx="3.621" ry="3.621" style="stroke:#181818;stroke-width:0.7242;" width="198.8217" x="1430.4661" y="72.4202"/><text fill="#000000" font-family="sans-serif" font-size="20.2777" lengthAdjust="spacing" textLength="178.544" x="1440.6049" y="104.2357">NotificationService</text></g><g class="participant participant-head" data-participant="PricePredictionModel"><rect fill="#E2E2F0" height="47.8957" rx="3.621" ry="3.621" style="stroke:#181818;stroke-width:0.7242;" width="223.9862" x="1643.7718" y="72.4202"/><text fill="#000000" font-family="sans-serif" font-size="20.2777" lengthAdjust="spacing" textLength="203.7085" x="1653.9106" y="104.2357">PricePredictionModel</text></g><g class="message" data-participant-1="User" data-participant-2="Frontend"><polygon fill="#181818" points="351.4308,164.7906,365.9148,170.5842,351.4308,176.3778,357.2244,170.5842" style="stroke:#181818;stroke-width:1.4484;"/><line style="stroke:#181818;stroke-width:1.4484;" x1="33.7608" x2="360.1212" y1="170.5842" y2="170.5842"/><text fill="#000000" font-family="sans-serif" font-size="18.8292" lengthAdjust="spacing" textLength="256.4358" x="43.8996" y="162.1704">Request product comparison</text></g><g class="message" data-participant-1="Frontend" data-participant-2="Backend"><polygon fill="#181818" points="694.5782,210.7137,709.0622,216.5073,694.5782,222.3009,700.3718,216.5073" style="stroke:#181818;stroke-width:1.4484;"/><line style="stroke:#181818;stroke-width:1.4484;" x1="368.8116" x2="703.2686" y1="216.5073" y2="216.5073"/><text fill="#000000" font-family="sans-serif" font-size="18.8292" lengthAdjust="spacing" textLength="308.3858" x="378.9504" y="208.0935">Send GET request with product IDs</text></g><g class="message" data-participant-1="Backend" data-participant-2="Database"><polygon fill="#181818" points="967.6431,256.6368,982.1271,262.4304,967.6431,268.2241,973.4367,262.4304" style="stroke:#181818;stroke-width:1.4484;"/><line style="stroke:#181818;stroke-width:1.4484;" x1="711.9591" x2="976.3335" y1="262.4304" y2="262.4304"/><text fill="#000000" font-family="sans-serif" font-size="18.8292" lengthAdjust="spacing" textLength="192.228" x="722.0979" y="254.0167">Query product details</text></g><g class="message" data-participant-1="Database" data-participant-2="Backend"><polygon fill="#181818" points="727.8915,302.5599,713.4075,308.3535,727.8915,314.1472,722.0979,308.3535" style="stroke:#181818;stroke-width:1.4484;"/><line style="stroke:#181818;stroke-width:1.4484;stroke-dasharray:2.0,2.0;" x1="719.2011" x2="983.5755" y1="308.3535" y2="308.3535"/><text fill="#000000" font-family="sans-serif" font-size="18.8292" lengthAdjust="spacing" textLength="198.0651" x="736.5819" y="299.9398">Return product details</text></g><g class="message" data-participant-1="Backend" data-participant-2="LLMModule"><polygon fill="#181818" points="1103.3263,348.483,1117.8103,354.2767,1103.3263,360.0703,1109.1199,354.2767" style="stroke:#181818;stroke-width:1.4484;"/><line style="stroke:#181818;stroke-width:1.4484;" x1="711.9591" x2="1112.0167" y1="354.2767" y2="354.2767"/><text fill="#000000" font-family="sans-serif" font-size="18.8292" lengthAdjust="spacing" textLength="255.2872" x="722.0979" y="345.8629">Generate comparison details</text></g><g class="message" data-participant-1="LLMModule" data-participant-2="Backend"><polygon fill="#181818" points="727.8915,394.4062,713.4075,400.1998,727.8915,405.9934,722.0979,400.1998" style="stroke:#181818;stroke-width:1.4484;"/><line style="stroke:#181818;stroke-width:1.4484;stroke-dasharray:2.0,2.0;" x1="719.2011" x2="1119.2587" y1="400.1998" y2="400.1998"/><text fill="#000000" font-family="sans-serif" font-size="18.8292" lengthAdjust="spacing" textLength="234.6692" x="736.5819" y="391.786">Return comparison output</text></g><g class="message" data-participant-1="Backend" data-participant-2="Frontend"><polygon fill="#181818" points="384.7441,440.3293,370.26,446.1229,384.7441,451.9165,378.9504,446.1229" style="stroke:#181818;stroke-width:1.4484;"/><line style="stroke:#181818;stroke-width:1.4484;stroke-dasharray:2.0,2.0;" x1="376.0536" x2="710.5106" y1="446.1229" y2="446.1229"/><text fill="#000000" font-family="sans-serif" font-size="18.8292" lengthAdjust="spacing" textLength="307.7643" x="393.4345" y="437.7091">Display comparison results to User</text></g><g class="message" data-participant-1="User" data-participant-2="Frontend"><polygon fill="#181818" points="351.4308,486.2524,365.9148,492.046,351.4308,497.8396,357.2244,492.046" style="stroke:#181818;stroke-width:1.4484;"/><line style="stroke:#181818;stroke-width:1.4484;" x1="33.7608" x2="360.1212" y1="492.046" y2="492.046"/><text fill="#000000" font-family="sans-serif" font-size="18.8292" lengthAdjust="spacing" textLength="258.1869" x="43.8996" y="483.6322">Set a price alert for a product</text></g><g class="message" data-participant-1="Frontend" data-participant-2="Backend"><polygon fill="#181818" points="694.5782,532.1755,709.0622,537.9691,694.5782,543.7627,700.3718,537.9691" style="stroke:#181818;stroke-width:1.4484;"/><line style="stroke:#181818;stroke-width:1.4484;" x1="368.8116" x2="703.2686" y1="537.9691" y2="537.9691"/><text fill="#000000" font-family="sans-serif" font-size="18.8292" lengthAdjust="spacing" textLength="201.6426" x="378.9504" y="529.5553">Send price alert details</text></g><g class="message" data-participant-1="Backend" data-participant-2="Database"><polygon fill="#181818" points="967.6431,578.0986,982.1271,583.8922,967.6431,589.6858,973.4367,583.8922" style="stroke:#181818;stroke-width:1.4484;"/><line style="stroke:#181818;stroke-width:1.4484;" x1="711.9591" x2="976.3335" y1="583.8922" y2="583.8922"/><text fill="#000000" font-family="sans-serif" font-size="18.8292" lengthAdjust="spacing" textLength="238.3032" x="722.0979" y="575.4784">Store price alert conditions</text></g><g class="message" data-participant-1="ScraperService" data-participant-2="Database"><polygon fill="#181818" points="1000.9564,624.0217,986.4723,629.8153,1000.9564,635.609,995.1628,629.8153" style="stroke:#181818;stroke-width:1.4484;"/><line style="stroke:#181818;stroke-width:1.4484;" x1="992.266" x2="1334.1229" y1="629.8153" y2="629.8153"/><text fill="#000000" font-family="sans-serif" font-size="18.8292" lengthAdjust="spacing" textLength="315.7857" x="1009.6468" y="621.4016">Update product prices continuously</text></g><g class="message" data-participant-1="Database" data-participant-2="NotificationService"><polygon fill="#181818" points="1512.4961,669.9448,1526.9801,675.7385,1512.4961,681.5321,1518.2897,675.7385" style="stroke:#181818;stroke-width:1.4484;"/><line style="stroke:#181818;stroke-width:1.4484;" x1="985.0239" x2="1521.1865" y1="675.7385" y2="675.7385"/><text fill="#000000" font-family="sans-serif" font-size="18.8292" lengthAdjust="spacing" textLength="334.9915" x="995.1628" y="667.3247">Trigger notification if threshold is met</text></g><g class="message" data-participant-1="NotificationService" data-participant-2="User"><polygon fill="#181818" points="49.6932,715.868,35.2092,721.6616,49.6932,727.4552,43.8996,721.6616" style="stroke:#181818;stroke-width:1.4484;"/><line style="stroke:#181818;stroke-width:1.4484;" x1="41.0028" x2="1528.4285" y1="721.6616" y2="721.6616"/><text fill="#000000" font-family="sans-serif" font-size="18.8292" lengthAdjust="spacing" textLength="202.7724" x="58.3836" y="713.2478">Send email notification</text></g><g class="message" data-participant-1="User" data-participant-2="Frontend"><polygon fill="#181818" points="351.4308,761.7911,365.9148,767.5847,351.4308,773.3783,357.2244,767.5847" style="stroke:#181818;stroke-width:1.4484;"/><line style="stroke:#181818;stroke-width:1.4484;" x1="33.7608" x2="360.1212" y1="767.5847" y2="767.5847"/><text fill="#000000" font-family="sans-serif" font-size="18.8292" lengthAdjust="spacing" textLength="300.2892" x="43.8996" y="759.1709">Ask for best time to buy a product</text></g><g class="message" data-participant-1="Frontend" data-participant-2="Backend"><polygon fill="#181818" points="694.5782,807.7142,709.0622,813.5078,694.5782,819.3014,700.3718,813.5078" style="stroke:#181818;stroke-width:1.4484;"/><line style="stroke:#181818;stroke-width:1.4484;" x1="368.8116" x2="703.2686" y1="813.5078" y2="813.5078"/><text fill="#000000" font-family="sans-serif" font-size="18.8292" lengthAdjust="spacing" textLength="146.6046" x="378.9504" y="805.094">Forward request</text></g><g class="message" data-participant-1="Backend" data-participant-2="PricePredictionModel"><polygon fill="#181818" points="1738.384,853.6373,1752.8681,859.4309,1738.384,865.2245,1744.1777,859.4309" style="stroke:#181818;stroke-width:1.4484;"/><line style="stroke:#181818;stroke-width:1.4484;" x1="711.9591" x2="1747.0745" y1="859.4309" y2="859.4309"/><text fill="#000000" font-family="sans-serif" font-size="18.8292" lengthAdjust="spacing" textLength="182.9075" x="722.0979" y="851.0171">Analyze price history</text></g><g class="message" data-participant-1="PricePredictionModel" data-participant-2="Backend"><polygon fill="#181818" points="727.8915,899.5604,713.4075,905.354,727.8915,911.1476,722.0979,905.354" style="stroke:#181818;stroke-width:1.4484;"/><line style="stroke:#181818;stroke-width:1.4484;stroke-dasharray:2.0,2.0;" x1="719.2011" x2="1754.3165" y1="905.354" y2="905.354"/><text fill="#000000" font-family="sans-serif" font-size="18.8292" lengthAdjust="spacing" textLength="199.6091" x="736.5819" y="896.9402">Return prediction data</text></g><g class="message" data-participant-1="Backend" data-participant-2="Frontend"><polygon fill="#181818" points="384.7441,945.4835,370.26,951.2771,384.7441,957.0708,378.9504,951.2771" style="stroke:#181818;stroke-width:1.4484;"/><line style="stroke:#181818;stroke-width:1.4484;stroke-dasharray:2.0,2.0;" x1="376.0536" x2="710.5106" y1="951.2771" y2="951.2771"/><text fill="#000000" font-family="sans-serif" font-size="18.8292" lengthAdjust="spacing" textLength="293.0399" x="393.4345" y="942.8634">Display prediction results to User</text></g><!--SRC=[XPB1Rjim38RlUWg-G04F0tR8eK27hCM0TaZhzW4OYOc9s997qKkzfvzanAcokUl51_7_VveV6G_iUnJi8DBFWRob3OgovHwzrZrQzdluL9c67S4k1Ds6LsFYsULwXizLPQB5bg33L_XILN1afuqnQ3K8l4GIO_8NhgxXLe9Nycu5JxbXLEWbkC4gsD2bJ8x1crcK3L_H7YPzdH_klZs3d8n7rkRi_hwEvYJDhZKgRZ7I2Xu7al4iSwJ8RJHp7QxA5a-aW_X_n4Nk_Vt3GogsAVYEF0ag5Jz-TfnbY_c58GpQ3_hMuOBGccFVubZgXUBGQWGDxtAjIG7J36m9qb94qzvaUfcc-W_SqhCm-nlJEksLBkGsUCVAmKTJMy6Uf2RvbUiNnfVUPM8pu2aXPhEo7y8Gsx7Op3Ny2CexjfY3JtahU1RUxzFGlYW2xq2R1AS9hGEEq96Q1NSEpSHE0rENPhm8MW9w4myJmcq-EkMECltjC7x4z3R84SNDzrgYtEJ1DqAERUwQReNQrCXZE_wUmJOS4-RHB6dVETjP0uaoVd1KXVhle_e3]--></g></svg>